<svg viewBox="0 0 1498 400" xmlns="http://www.w3.org/2000/svg"><g><g><g><g><g><line x1="51.5625" y1="371.3691109213267" x2="46.5625" y2="371.3691109213267" style="visibility: inherit;" fill="rgb(0, 0, 0)" stroke="rgb(204, 204, 204)" stroke-width="1px"></line><line x1="51.5625" y1="355.15817687489243" x2="46.5625" y2="355.15817687489243" style="visibility: inherit;" fill="rgb(0, 0, 0)" stroke="rgb(204, 204, 204)" stroke-width="1px"></line><line x1="51.5625" y1="342.58399954638304" x2="46.5625" y2="342.58399954638304" style="visibility: inherit;" fill="rgb(0, 0, 0)" stroke="rgb(204, 204, 204)" stroke-width="1px"></line><line x1="51.5625" y1="332.3101485996043" x2="46.5625" y2="332.3101485996043" style="visibility: inherit;" fill="rgb(0, 0, 0)" stroke="rgb(204, 204, 204)" stroke-width="1px"></line><line x1="51.5625" y1="323.62373139398727" x2="46.5625" y2="323.62373139398727" style="visibility: inherit;" fill="rgb(0, 0, 0)" stroke="rgb(204, 204, 204)" stroke-width="1px"></line><line x1="51.5625" y1="316.09921455317" x2="46.5625" y2="316.09921455317" style="visibility: inherit;" fill="rgb(0, 0, 0)" stroke="rgb(204, 204, 204)" stroke-width="1px"></line><line x1="51.5625" y1="309.4621203243161" x2="46.5625" y2="309.4621203243161" style="visibility: inherit;" fill="rgb(0, 0, 0)" stroke="rgb(204, 204, 204)" stroke-width="1px"></line><line x1="51.5625" y1="303.5250372246606" x2="46.5625" y2="303.5250372246606" style="visibility: inherit;" fill="rgb(0, 0, 0)" stroke="rgb(204, 204, 204)" stroke-width="1px"></line><line x1="51.5625" y1="264.4660749029382" x2="46.5625" y2="264.4660749029382" style="visibility: inherit;" fill="rgb(0, 0, 0)" stroke="rgb(204, 204, 204)" stroke-width="1px"></line><line x1="51.5625" y1="241.61804662765005" x2="46.5625" y2="241.61804662765005" style="visibility: inherit;" fill="rgb(0, 0, 0)" stroke="rgb(204, 204, 204)" stroke-width="1px"></line><line x1="51.5625" y1="225.40711258121576" x2="46.5625" y2="225.40711258121576" style="visibility: inherit;" fill="rgb(0, 0, 0)" stroke="rgb(204, 204, 204)" stroke-width="1px"></line><line x1="51.5625" y1="212.83293525270636" x2="46.5625" y2="212.83293525270636" style="visibility: inherit;" fill="rgb(0, 0, 0)" stroke="rgb(204, 204, 204)" stroke-width="1px"></line><line x1="51.5625" y1="202.55908430592757" x2="46.5625" y2="202.55908430592757" style="visibility: inherit;" fill="rgb(0, 0, 0)" stroke="rgb(204, 204, 204)" stroke-width="1px"></line><line x1="51.5625" y1="193.87266710031065" x2="46.5625" y2="193.87266710031065" style="visibility: inherit;" fill="rgb(0, 0, 0)" stroke="rgb(204, 204, 204)" stroke-width="1px"></line><line x1="51.5625" y1="186.3481502594933" x2="46.5625" y2="186.3481502594933" style="visibility: inherit;" fill="rgb(0, 0, 0)" stroke="rgb(204, 204, 204)" stroke-width="1px"></line><line x1="51.5625" y1="179.7110560306394" x2="46.5625" y2="179.7110560306394" style="visibility: inherit;" fill="rgb(0, 0, 0)" stroke="rgb(204, 204, 204)" stroke-width="1px"></line><line x1="51.5625" y1="173.77397293098392" x2="46.5625" y2="173.77397293098392" style="visibility: inherit;" fill="rgb(0, 0, 0)" stroke="rgb(204, 204, 204)" stroke-width="1px"></line><line x1="51.5625" y1="134.7150106092615" x2="46.5625" y2="134.7150106092615" style="visibility: inherit;" fill="rgb(0, 0, 0)" stroke="rgb(204, 204, 204)" stroke-width="1px"></line><line x1="51.5625" y1="111.86698233397333" x2="46.5625" y2="111.86698233397333" style="visibility: inherit;" fill="rgb(0, 0, 0)" stroke="rgb(204, 204, 204)" stroke-width="1px"></line><line x1="51.5625" y1="95.6560482875391" x2="46.5625" y2="95.6560482875391" style="visibility: inherit;" fill="rgb(0, 0, 0)" stroke="rgb(204, 204, 204)" stroke-width="1px"></line><line x1="51.5625" y1="83.0818709590297" x2="46.5625" y2="83.0818709590297" style="visibility: inherit;" fill="rgb(0, 0, 0)" stroke="rgb(204, 204, 204)" stroke-width="1px"></line><line x1="51.5625" y1="72.80802001225088" x2="46.5625" y2="72.80802001225088" style="visibility: inherit;" fill="rgb(0, 0, 0)" stroke="rgb(204, 204, 204)" stroke-width="1px"></line><line x1="51.5625" y1="64.12160280663396" x2="46.5625" y2="64.12160280663396" style="visibility: inherit;" fill="rgb(0, 0, 0)" stroke="rgb(204, 204, 204)" stroke-width="1px"></line><line x1="51.5625" y1="56.59708596581664" x2="46.5625" y2="56.59708596581664" style="visibility: inherit;" fill="rgb(0, 0, 0)" stroke="rgb(204, 204, 204)" stroke-width="1px"></line><line x1="51.5625" y1="49.9599917369627" x2="46.5625" y2="49.9599917369627" style="visibility: inherit;" fill="rgb(0, 0, 0)" stroke="rgb(204, 204, 204)" stroke-width="1px"></line><line x1="51.5625" y1="44.02290863730725" x2="46.5625" y2="44.02290863730725" style="visibility: inherit;" fill="rgb(0, 0, 0)" stroke="rgb(204, 204, 204)" stroke-width="1px"></line><line x1="51.5625" y1="4.963946315584842" x2="46.5625" y2="4.963946315584842" style="visibility: inherit;" fill="rgb(0, 0, 0)" stroke="rgb(204, 204, 204)" stroke-width="1px"></line></g><g transform="translate(41.5625, 0)"><text x="0" y="371.3691109213267" dx="0em" dy="0.3em" style="text-anchor: end; visibility: inherit; font-family: Roboto, sans-serif; font-size: 12px; font-weight: 200;" fill="rgb(33, 33, 33)" stroke="none" stroke-width="1px">3e-3</text><text x="0" y="355.15817687489243" dx="0em" dy="0.3em" style="text-anchor: end; visibility: hidden; font-family: Roboto, sans-serif; font-size: 12px; font-weight: 200;" fill="rgb(33, 33, 33)" stroke="none" stroke-width="1px">4e-3</text><text x="0" y="342.58399954638304" dx="0em" dy="0.3em" style="text-anchor: end; visibility: hidden; font-family: Roboto, sans-serif; font-size: 12px; font-weight: 200;" fill="rgb(33, 33, 33)" stroke="none" stroke-width="1px">5e-3</text><text x="0" y="332.3101485996043" dx="0em" dy="0.3em" style="text-anchor: end; visibility: hidden; font-family: Roboto, sans-serif; font-size: 12px; font-weight: 200;" fill="rgb(33, 33, 33)" stroke="none" stroke-width="1px">6e-3</text><text x="0" y="323.62373139398727" dx="0em" dy="0.3em" style="text-anchor: end; visibility: inherit; font-family: Roboto, sans-serif; font-size: 12px; font-weight: 200;" fill="rgb(33, 33, 33)" stroke="none" stroke-width="1px">7e-3</text><text x="0" y="316.09921455317" dx="0em" dy="0.3em" style="text-anchor: end; visibility: hidden; font-family: Roboto, sans-serif; font-size: 12px; font-weight: 200;" fill="rgb(33, 33, 33)" stroke="none" stroke-width="1px">8e-3</text><text x="0" y="309.4621203243161" dx="0em" dy="0.3em" style="text-anchor: end; visibility: hidden; font-family: Roboto, sans-serif; font-size: 12px; font-weight: 200;" fill="rgb(33, 33, 33)" stroke="none" stroke-width="1px">9e-3</text><text x="0" y="303.5250372246606" dx="0em" dy="0.3em" style="text-anchor: end; visibility: hidden; font-family: Roboto, sans-serif; font-size: 12px; font-weight: 200;" fill="rgb(33, 33, 33)" stroke="none" stroke-width="1px">0.01</text><text x="0" y="264.4660749029382" dx="0em" dy="0.3em" style="text-anchor: end; visibility: inherit; font-family: Roboto, sans-serif; font-size: 12px; font-weight: 200;" fill="rgb(33, 33, 33)" stroke="none" stroke-width="1px">0.02</text><text x="0" y="241.61804662765005" dx="0em" dy="0.3em" style="text-anchor: end; visibility: hidden; font-family: Roboto, sans-serif; font-size: 12px; font-weight: 200;" fill="rgb(33, 33, 33)" stroke="none" stroke-width="1px">0.03</text><text x="0" y="225.40711258121576" dx="0em" dy="0.3em" style="text-anchor: end; visibility: hidden; font-family: Roboto, sans-serif; font-size: 12px; font-weight: 200;" fill="rgb(33, 33, 33)" stroke="none" stroke-width="1px">0.04</text><text x="0" y="212.83293525270636" dx="0em" dy="0.3em" style="text-anchor: end; visibility: hidden; font-family: Roboto, sans-serif; font-size: 12px; font-weight: 200;" fill="rgb(33, 33, 33)" stroke="none" stroke-width="1px">0.05</text><text x="0" y="202.55908430592757" dx="0em" dy="0.3em" style="text-anchor: end; visibility: inherit; font-family: Roboto, sans-serif; font-size: 12px; font-weight: 200;" fill="rgb(33, 33, 33)" stroke="none" stroke-width="1px">0.06</text><text x="0" y="193.87266710031065" dx="0em" dy="0.3em" style="text-anchor: end; visibility: hidden; font-family: Roboto, sans-serif; font-size: 12px; font-weight: 200;" fill="rgb(33, 33, 33)" stroke="none" stroke-width="1px">0.07</text><text x="0" y="186.3481502594933" dx="0em" dy="0.3em" style="text-anchor: end; visibility: hidden; font-family: Roboto, sans-serif; font-size: 12px; font-weight: 200;" fill="rgb(33, 33, 33)" stroke="none" stroke-width="1px">0.08</text><text x="0" y="179.7110560306394" dx="0em" dy="0.3em" style="text-anchor: end; visibility: hidden; font-family: Roboto, sans-serif; font-size: 12px; font-weight: 200;" fill="rgb(33, 33, 33)" stroke="none" stroke-width="1px">0.09</text><text x="0" y="173.77397293098392" dx="0em" dy="0.3em" style="text-anchor: end; visibility: inherit; font-family: Roboto, sans-serif; font-size: 12px; font-weight: 200;" fill="rgb(33, 33, 33)" stroke="none" stroke-width="1px">0.1</text><text x="0" y="134.7150106092615" dx="0em" dy="0.3em" style="text-anchor: end; visibility: hidden; font-family: Roboto, sans-serif; font-size: 12px; font-weight: 200;" fill="rgb(33, 33, 33)" stroke="none" stroke-width="1px">0.2</text><text x="0" y="111.86698233397333" dx="0em" dy="0.3em" style="text-anchor: end; visibility: hidden; font-family: Roboto, sans-serif; font-size: 12px; font-weight: 200;" fill="rgb(33, 33, 33)" stroke="none" stroke-width="1px">0.3</text><text x="0" y="95.6560482875391" dx="0em" dy="0.3em" style="text-anchor: end; visibility: hidden; font-family: Roboto, sans-serif; font-size: 12px; font-weight: 200;" fill="rgb(33, 33, 33)" stroke="none" stroke-width="1px">0.4</text><text x="0" y="83.0818709590297" dx="0em" dy="0.3em" style="text-anchor: end; visibility: inherit; font-family: Roboto, sans-serif; font-size: 12px; font-weight: 200;" fill="rgb(33, 33, 33)" stroke="none" stroke-width="1px">0.5</text><text x="0" y="72.80802001225088" dx="0em" dy="0.3em" style="text-anchor: end; visibility: hidden; font-family: Roboto, sans-serif; font-size: 12px; font-weight: 200;" fill="rgb(33, 33, 33)" stroke="none" stroke-width="1px">0.6</text><text x="0" y="64.12160280663396" dx="0em" dy="0.3em" style="text-anchor: end; visibility: hidden; font-family: Roboto, sans-serif; font-size: 12px; font-weight: 200;" fill="rgb(33, 33, 33)" stroke="none" stroke-width="1px">0.7</text><text x="0" y="56.59708596581664" dx="0em" dy="0.3em" style="text-anchor: end; visibility: hidden; font-family: Roboto, sans-serif; font-size: 12px; font-weight: 200;" fill="rgb(33, 33, 33)" stroke="none" stroke-width="1px">0.8</text><text x="0" y="49.9599917369627" dx="0em" dy="0.3em" style="text-anchor: end; visibility: inherit; font-family: Roboto, sans-serif; font-size: 12px; font-weight: 200;" fill="rgb(33, 33, 33)" stroke="none" stroke-width="1px">0.9</text><text x="0" y="44.02290863730725" dx="0em" dy="0.3em" style="text-anchor: end; visibility: hidden; font-family: Roboto, sans-serif; font-size: 12px; font-weight: 200;" fill="rgb(33, 33, 33)" stroke="none" stroke-width="1px">1</text><text x="0" y="4.963946315584842" dx="0em" dy="0.3em" style="text-anchor: end; visibility: hidden; font-family: Roboto, sans-serif; font-size: 12px; font-weight: 200;" fill="rgb(33, 33, 33)" stroke="none" stroke-width="1px">2</text></g><line x1="51.5625" y1="0" x2="51.5625" y2="377" fill="rgb(0, 0, 0)" stroke="rgb(204, 204, 204)" stroke-width="1px"></line></g></g><g transform="translate(51, 0)" clip-path="url(#clip_0)"><clipPath id="clip_0"><rect width="1446" height="377"></rect></clipPath><g><g><g><line x1="0" y1="0" x2="0" y2="377" fill="rgb(0, 0, 0)" stroke="rgb(66, 66, 66)" stroke-width="1px" opacity="0.25"></line><line x1="144.64375" y1="0" x2="144.64375" y2="377" fill="rgb(0, 0, 0)" stroke="rgb(66, 66, 66)" stroke-width="1px" opacity="0.25"></line><line x1="289.2875" y1="0" x2="289.2875" y2="377" fill="rgb(0, 0, 0)" stroke="rgb(66, 66, 66)" stroke-width="1px" opacity="0.25"></line><line x1="433.93125" y1="0" x2="433.93125" y2="377" fill="rgb(0, 0, 0)" stroke="rgb(66, 66, 66)" stroke-width="1px" opacity="0.25"></line><line x1="578.575" y1="0" x2="578.575" y2="377" fill="rgb(0, 0, 0)" stroke="rgb(66, 66, 66)" stroke-width="1px" opacity="0.25"></line><line x1="723.21875" y1="0" x2="723.21875" y2="377" fill="rgb(0, 0, 0)" stroke="rgb(66, 66, 66)" stroke-width="1px" opacity="0.25"></line><line x1="867.8625" y1="0" x2="867.8625" y2="377" fill="rgb(0, 0, 0)" stroke="rgb(66, 66, 66)" stroke-width="1px" opacity="0.25"></line><line x1="1012.5062499999999" y1="0" x2="1012.5062499999999" y2="377" fill="rgb(0, 0, 0)" stroke="rgb(66, 66, 66)" stroke-width="1px" opacity="0.25"></line><line x1="1157.15" y1="0" x2="1157.15" y2="377" fill="rgb(0, 0, 0)" stroke="rgb(66, 66, 66)" stroke-width="1px" opacity="0.25"></line><line x1="1301.79375" y1="0" x2="1301.79375" y2="377" fill="rgb(0, 0, 0)" stroke="rgb(66, 66, 66)" stroke-width="1px" opacity="0.25"></line><line x1="1446.4375" y1="0" x2="1446.4375" y2="377" fill="rgb(0, 0, 0)" stroke="rgb(66, 66, 66)" stroke-width="1px" opacity="0.25"></line></g><g><line x1="0" y1="371.3691109213267" x2="1446.4375" y2="371.3691109213267" fill="rgb(0, 0, 0)" stroke="rgb(66, 66, 66)" stroke-width="1px" opacity="0.25"></line><line x1="0" y1="355.15817687489243" x2="1446.4375" y2="355.15817687489243" fill="rgb(0, 0, 0)" stroke="rgb(66, 66, 66)" stroke-width="1px" opacity="0.25"></line><line x1="0" y1="342.58399954638304" x2="1446.4375" y2="342.58399954638304" fill="rgb(0, 0, 0)" stroke="rgb(66, 66, 66)" stroke-width="1px" opacity="0.25"></line><line x1="0" y1="332.3101485996043" x2="1446.4375" y2="332.3101485996043" fill="rgb(0, 0, 0)" stroke="rgb(66, 66, 66)" stroke-width="1px" opacity="0.25"></line><line x1="0" y1="323.62373139398727" x2="1446.4375" y2="323.62373139398727" fill="rgb(0, 0, 0)" stroke="rgb(66, 66, 66)" stroke-width="1px" opacity="0.25"></line><line x1="0" y1="316.09921455317" x2="1446.4375" y2="316.09921455317" fill="rgb(0, 0, 0)" stroke="rgb(66, 66, 66)" stroke-width="1px" opacity="0.25"></line><line x1="0" y1="309.4621203243161" x2="1446.4375" y2="309.4621203243161" fill="rgb(0, 0, 0)" stroke="rgb(66, 66, 66)" stroke-width="1px" opacity="0.25"></line><line x1="0" y1="303.5250372246606" x2="1446.4375" y2="303.5250372246606" fill="rgb(0, 0, 0)" stroke="rgb(66, 66, 66)" stroke-width="1px" opacity="0.25"></line><line x1="0" y1="264.4660749029382" x2="1446.4375" y2="264.4660749029382" fill="rgb(0, 0, 0)" stroke="rgb(66, 66, 66)" stroke-width="1px" opacity="0.25"></line><line x1="0" y1="241.61804662765005" x2="1446.4375" y2="241.61804662765005" fill="rgb(0, 0, 0)" stroke="rgb(66, 66, 66)" stroke-width="1px" opacity="0.25"></line><line x1="0" y1="225.40711258121576" x2="1446.4375" y2="225.40711258121576" fill="rgb(0, 0, 0)" stroke="rgb(66, 66, 66)" stroke-width="1px" opacity="0.25"></line><line x1="0" y1="212.83293525270636" x2="1446.4375" y2="212.83293525270636" fill="rgb(0, 0, 0)" stroke="rgb(66, 66, 66)" stroke-width="1px" opacity="0.25"></line><line x1="0" y1="202.55908430592757" x2="1446.4375" y2="202.55908430592757" fill="rgb(0, 0, 0)" stroke="rgb(66, 66, 66)" stroke-width="1px" opacity="0.25"></line><line x1="0" y1="193.87266710031065" x2="1446.4375" y2="193.87266710031065" fill="rgb(0, 0, 0)" stroke="rgb(66, 66, 66)" stroke-width="1px" opacity="0.25"></line><line x1="0" y1="186.3481502594933" x2="1446.4375" y2="186.3481502594933" fill="rgb(0, 0, 0)" stroke="rgb(66, 66, 66)" stroke-width="1px" opacity="0.25"></line><line x1="0" y1="179.7110560306394" x2="1446.4375" y2="179.7110560306394" fill="rgb(0, 0, 0)" stroke="rgb(66, 66, 66)" stroke-width="1px" opacity="0.25"></line><line x1="0" y1="173.77397293098392" x2="1446.4375" y2="173.77397293098392" fill="rgb(0, 0, 0)" stroke="rgb(66, 66, 66)" stroke-width="1px" opacity="0.25"></line><line x1="0" y1="134.7150106092615" x2="1446.4375" y2="134.7150106092615" fill="rgb(0, 0, 0)" stroke="rgb(66, 66, 66)" stroke-width="1px" opacity="0.25"></line><line x1="0" y1="111.86698233397333" x2="1446.4375" y2="111.86698233397333" fill="rgb(0, 0, 0)" stroke="rgb(66, 66, 66)" stroke-width="1px" opacity="0.25"></line><line x1="0" y1="95.6560482875391" x2="1446.4375" y2="95.6560482875391" fill="rgb(0, 0, 0)" stroke="rgb(66, 66, 66)" stroke-width="1px" opacity="0.25"></line><line x1="0" y1="83.0818709590297" x2="1446.4375" y2="83.0818709590297" fill="rgb(0, 0, 0)" stroke="rgb(66, 66, 66)" stroke-width="1px" opacity="0.25"></line><line x1="0" y1="72.80802001225088" x2="1446.4375" y2="72.80802001225088" fill="rgb(0, 0, 0)" stroke="rgb(66, 66, 66)" stroke-width="1px" opacity="0.25"></line><line x1="0" y1="64.12160280663396" x2="1446.4375" y2="64.12160280663396" fill="rgb(0, 0, 0)" stroke="rgb(66, 66, 66)" stroke-width="1px" opacity="0.25"></line><line x1="0" y1="56.59708596581664" x2="1446.4375" y2="56.59708596581664" fill="rgb(0, 0, 0)" stroke="rgb(66, 66, 66)" stroke-width="1px" opacity="0.25"></line><line x1="0" y1="49.9599917369627" x2="1446.4375" y2="49.9599917369627" fill="rgb(0, 0, 0)" stroke="rgb(66, 66, 66)" stroke-width="1px" opacity="0.25"></line><line x1="0" y1="44.02290863730725" x2="1446.4375" y2="44.02290863730725" fill="rgb(0, 0, 0)" stroke="rgb(66, 66, 66)" stroke-width="1px" opacity="0.25"></line><line x1="0" y1="4.963946315584842" x2="1446.4375" y2="4.963946315584842" fill="rgb(0, 0, 0)" stroke="rgb(66, 66, 66)" stroke-width="1px" opacity="0.25"></line></g></g></g><g><g><line x1="144.64375" y1="0" x2="144.64375" y2="377" fill="rgb(0, 0, 0)" stroke="rgb(153, 153, 153)" stroke-width="1.5px"></line></g></g><g><g><g><g><g><path stroke="rgb(255, 112, 67)" stroke-width="2px" d="M144.64375,53.85714285714283L151.8759375,68.1262056759933L159.108125,77.52905232090039L166.3403125,83.37792012392576L173.5725,88.65945901433824L180.8046875,93.2296419128165L188.036875,98.18281697815624L195.26906250000002,102.30511577841929L202.50125000000003,106.60905381141502L209.73343749999998,110.27798674190562L216.965625,113.0782908676851L224.1978125,117.21443593668809L231.43,119.766261756277L238.66218750000002,122.56618566581848L245.89437500000003,125.54605408133911L253.12656249999998,128.21834589113422L260.35875,130.40433582461205L267.5909375,132.60795158951294L274.823125,135.05412225716748L282.0553125,135.99736605759614L289.2875,138.49620758590837L296.5196875,140.14721019205925L303.751875,141.758577080336L310.9840625,144.46611571599138L318.21625,146.31158434435L325.4484375,147.7844314484806L332.680625,147.77020204564795L339.9128125,150.2686247744886L347.145,151.9647878207879L354.3771875,153.24192639554232L361.609375,154.38866267333756L368.8415625,155.3881649919865L376.07375,157.95036421869028L383.3059375,158.48052792798026L390.53812500000004,159.82815282875674L397.77031250000005,162.1361818565231L405.00250000000005,161.99884733410644L412.23468749999995,166.17342289402632L419.46687499999996,164.76325605271484L426.69906249999997,166.16359174394077L433.93125,167.77154665572544L441.1634375,168.20890232181677L448.395625,170.5543270283953L455.6278125,171.7701549097225L462.86,172.28365528818918L470.0921875,174.0337844591464L477.32437500000003,174.57987935672995L484.55656250000004,176.12126191381395L491.78875000000005,177.21274251173256L499.02093749999995,179.41130194648053L506.25312499999995,179.12556293326335L513.4853125,180.44206334409168L520.7175,182.75985747201324L527.9496875,183.10458307465896L535.181875,184.8331414752166L542.4140625,181.621406242924L549.64625,184.50496945662846L556.8784375,186.27775659944862L564.110625,188.26823970429788L571.3428125,188.7365892643548L578.575,190.30134442910816L585.8071875,190.58922348694256L593.039375,191.41542448584448L600.2715625,191.60066098455326L607.50375,193.7600759675883L614.7359375,194.37400397530817L621.968125,195.5558651759179L629.2003125,195.63888114551312L636.4325,196.0222480444806L643.6646875,197.82371891795665L650.896875,198.606226284005L658.1290625,198.41393394316347L665.36125,199.61329311862235L672.5934375,201.29607296235005L679.825625,202.67188033987983L687.0578125,203.7550208616079L694.29,204.41118871003346L701.5221875,204.3529645184993L708.754375,206.42670139561747L715.9865625,208.1010182550131L723.21875,227.67806597214084L730.4509375,243.91835211060794L737.683125,251.98217195171082L744.9153125,257.52918946868607L752.1475,259.86896477258597L759.3796875,260.33835019481825L766.611875,264.9186833028447L773.8440625000001,264.2972695828555L781.0762500000001,267.00174916102173L788.3084375000001,271.7977049542601L795.5406250000001,268.6160109913475L802.7728125000001,274.2909638682349L810.0050000000001,273.9564849050785L817.2371874999999,275.855296763992L824.4693749999999,276.34022020347646L831.7015624999999,280.97836160090304L838.9337499999999,279.5612163739305L846.1659374999999,283.4488040129151L853.3981249999999,279.047896571201L860.6303125,284.5647748300913L867.8625,284.00402685112033L875.0946875,286.8650412344916L882.326875,289.4387284627971L889.5590625,288.3088411956761L896.79125,284.8068830091358L904.0234375,290.59146868126885L911.255625,290.8607030824767L918.4878125,288.74071638779395L925.72,290.2340367166597L932.9521875,293.53363234592445L940.184375,292.3197669731587L947.4165625,298.87594496501623L954.6487500000001,296.14164951009263L961.8809375000001,298.87594496501623L969.1131250000001,300.7756289067661L976.3453125000001,298.46241927937376L983.5775000000001,305.7080259629462L990.8096875000001,299.60715508941473L998.0418749999999,303.63772107666324L1005.2740624999999,301.42325225232264L1012.5062499999999,300.4547461833167L1019.7384374999999,304.5486693908712L1026.970625,309.46209942554344L1034.2028125,302.96429500351604L1041.435,311.2432112247632L1048.6671875,310.85666727598255L1055.899375,313.6186649909346L1063.1315625,309.8391628090038L1070.36375,308.2237465259436L1077.5959375,314.84523572545794L1084.828125,317.9608649063648L1092.0603125,314.57039326043497L1099.2925,312.6831395010765L1106.5246875,312.55052665646633L1113.756875,314.02469748330765L1120.9890625,314.57039326043497L1128.22125,315.53847233202544L1135.4534375,316.66536216819196L1142.685625,317.2378005556413L1149.9178125,317.38150128069407L1157.15,318.54668566333146L1164.3821875,313.21593615577916L1171.614375,317.0940380344187L1178.8465625,315.26023617465177L1186.07875,314.57039326043497L1193.3109375,322.9832342435738L1200.543125,316.5234738584249L1207.7753125,319.13821758745826L1215.0075,317.0940380344187L1222.2396875,319.43632855080074L1229.471875,323.1428571428571L1236.7040625,317.52600000551274L1243.93625,320.95100905649457L1251.1684375,318.54668566333146L1258.400625,315.67831565552484L1265.6328125,321.56846816171804L1272.865,322.19323591593445L1280.0971875,317.8156810141515L1287.329375,319.28685379285196L1294.5615625,315.53847233202544" style="fill: none;" fill="none"></path></g><g><path stroke="rgb(51, 187, 238)" stroke-width="2px" d="M144.64375,54.4506934330852L151.8759375,59.17544568246546L159.108125,62.33416914468323L166.3403125,65.54991878218907L173.5725,67.96567926771836L180.8046875,69.6327548766465L188.036875,71.01486448751855L195.26906250000002,71.99125555667939L202.50125000000003,73.82582656398502L209.73343749999998,75.5759519666009L216.965625,77.07541096920404L224.1978125,78.72840920408946L231.43,80.49807030550205L238.66218750000002,81.59595634370491L245.89437500000003,82.92880665876065L253.12656249999998,85.16659962241347L260.35875,87.36546857115114L267.5909375,89.72206706220219L274.823125,92.16034440882251L282.0553125,94.81706990902084L289.2875,96.55921798188594L296.5196875,99.07084986695455L303.751875,100.27504391372644L310.9840625,102.5720608315196L318.21625,105.16981525597177L325.4484375,105.54129684139141L332.680625,107.88963323631258L339.9128125,109.45857089106794L347.145,110.42792380243328L354.3771875,112.57008777992797L361.609375,113.54077667847096L368.8415625,115.65018479167296L376.07375,116.86853504344217L383.3059375,118.2230263409454L390.53812500000004,119.67125767894879L397.77031250000005,120.79119648880476L405.00250000000005,121.72313486234965L412.23468749999995,122.58435487747082L419.46687499999996,123.50049083720532L426.69906249999997,125.1166990323558L433.93125,125.96905631643219L441.1634375,126.85899742771561L448.395625,127.5444940142302L455.6278125,129.35963425555178L462.86,130.10757759194865L470.0921875,130.01937625979753L477.32437500000003,131.3306351701395L484.55656250000004,131.86379691514344L491.78875000000005,133.0657798693653L499.02093749999995,133.29609650131047L506.25312499999995,133.63228275614628L513.4853125,135.40670718122345L520.7175,135.8189402608184L527.9496875,136.49532923605196L535.181875,137.55203635084868L542.4140625,137.95049200465525L549.64625,138.38183375865356L556.8784375,139.7822848356127L564.110625,139.19960592433452L571.3428125,140.62078932115548L578.575,140.53949991585523L585.8071875,141.68838241641868L593.039375,142.08517595302192L600.2715625,141.8096948431466L607.50375,143.80009773995752L614.7359375,143.88623325573113L621.968125,144.33228088408345L629.2003125,143.58203100796817L636.4325,144.52644624950918L643.6646875,145.41874892592008L650.896875,145.8084798720315L658.1290625,146.1318860702606L665.36125,146.28390430190132L672.5934375,147.2399108622189L679.825625,147.8484022569283L687.0578125,148.16229286837176L694.29,148.1980789617549L701.5221875,148.83155928132254L708.754375,149.76589121245672L715.9865625,149.4868861241557L723.21875,158.74749208394633L730.4509375,163.51890378416903L737.683125,165.93756744747276L744.9153125,166.51915926753057L752.1475,166.63820183930778L759.3796875,168.23955246833916L766.611875,167.8526747233517L773.8440625000001,168.57765585373767L781.0762500000001,168.90750917889906L788.3084375000001,169.64631065280642L795.5406250000001,169.6044045093758L802.7728125000001,170.3842998068061L810.0050000000001,170.24651367758128L817.2371874999999,171.05684963198257L824.4693749999999,170.89599217100238L831.7015624999999,171.00316878307603L838.9337499999999,171.2720537448119L846.1659374999999,171.61807962429089L853.3981249999999,171.15359139176337L860.6303125,171.62894240142126L867.8625,173.39209227191125L875.0946875,173.23558233316055L882.326875,173.5827024104825L889.5590625,172.42655295093112L896.79125,173.7401807870237L904.0234375,173.146361847183L911.255625,173.36971184129482L918.4878125,174.511335879629L925.72,174.45426293837042L932.9521875,175.14288000799144L940.184375,174.16979592417732L947.4165625,175.2121964818681L954.6487500000001,174.74017328867916L961.8809375000001,174.53417444266776L969.1131250000001,175.66489603793215L976.3453125000001,175.64159466355383L983.5775000000001,175.9101963012614L990.8096875000001,176.27424402721914L998.0418749999999,175.85168956961635L1005.2740624999999,175.5484854002524L1012.5062499999999,176.1683079836258L1019.7384374999999,176.91404142724053L1026.970625,177.8512136099183L1034.2028125,179.57349516439757L1041.435,179.38639909015438L1048.6671875,179.19995914684083L1055.899375,179.68599949090577L1063.1315625,179.82385206459168L1070.36375,180.16366443054594L1077.5959375,180.6708786880003L1084.828125,179.41130194648053L1092.0603125,179.52351978948903L1099.2925,179.57349516439757L1106.5246875,180.2394448285644L1113.756875,180.1384269277223L1120.9890625,180.74734473814115L1128.22125,180.02497906852477L1135.4534375,181.24697694146374L1142.685625,179.97463935079912L1149.9178125,180.37865967921948L1157.15,180.88782161561204L1164.3821875,180.21417337082192L1171.614375,181.9983401619147L1178.8465625,180.1005730650942L1186.07875,180.69635584390906L1193.3109375,179.74862813337236L1200.543125,180.84949922965745L1207.7753125,181.15700199364534L1215.0075,180.37865967921948L1222.2396875,181.22124967444734L1229.471875,180.74734473814115L1236.7040625,181.31136574210876L1243.93625,180.96458282134355L1251.1684375,181.95921647438226L1258.400625,181.33713419490195L1265.6328125,180.74734473814115L1272.865,181.35004205184856L1280.0971875,181.89412235567627L1287.329375,180.77285649733847L1294.5615625,181.56962064765386" style="fill: none;" fill="none"></path></g><g><path stroke="rgb(0, 119, 187)" stroke-width="2px" d="M144.64375,69.8105805395192L151.8759375,87.93008903649923L159.108125,99.52770655116024L166.3403125,108.36774568921548L173.5725,114.5718190596559L180.8046875,120.4358133089136L188.036875,125.82449920746376L195.26906250000002,128.89526429543628L202.50125000000003,133.00015695942082L209.73343749999998,135.0711381187648L216.965625,137.39225619995298L224.1978125,139.82546144687254L231.43,141.77774318718886L238.66218750000002,143.76701737489097L245.89437500000003,146.75638663134967L253.12656249999998,148.54993911507052L260.35875,150.23893163182774L267.5909375,151.6899591689442L274.823125,153.86380367736416L282.0553125,155.3312857762683L289.2875,156.82129939616183L296.5196875,157.4082830510762L303.751875,159.44231009988906L310.9840625,160.6435496026937L318.21625,162.20955672825778L325.4484375,162.485621560725L332.680625,164.93641031207164L339.9128125,164.62896962036L347.145,167.09682103221164L354.3771875,166.56873224346606L361.609375,168.6188050691598L368.8415625,169.37461592597617L376.07375,169.8351339784987L383.3059375,170.57561654882707L390.53812500000004,173.07953906557168L397.77031250000005,173.5265618416479L405.00250000000005,173.31378296518318L412.23468749999995,174.75162079346245L419.46687499999996,175.35112029494698L426.69906249999997,176.05081883211778L433.93125,177.8391188540829L441.1634375,178.66888909918018L448.395625,178.80427281566529L455.6278125,179.4237760675907L462.86,181.11845790630468L470.0921875,182.11583552314443L477.32437500000003,181.80307025539372L484.55656250000004,183.1977644284838L491.78875000000005,184.16516571219273L499.02093749999995,186.33405710340037L506.25312499999995,185.91312641807068L513.4853125,185.70383435127619L520.7175,187.48656489786416L527.9496875,186.9287184695277L535.181875,188.72191752909825L542.4140625,188.06453015515476L549.64625,189.64033567267649L556.8784375,191.36918739984208L564.110625,189.7300503678765L571.3428125,191.94189722286956L578.575,191.66258818293227L585.8071875,194.74883303744224L593.039375,195.6554693110538L600.2715625,194.74883303744224L607.50375,194.2279930664892L614.7359375,196.00555157179969L621.968125,197.4107724599227L629.2003125,198.23971389247134L636.4325,196.30729852100578L643.6646875,197.61684178029614L650.896875,198.64125438972602L658.1290625,197.97936382288785L665.36125,200.43934370813375L672.5934375,200.33092280569358L679.825625,202.072826502296L687.0578125,200.9847084638184L694.29,203.16335554952545L701.5221875,204.41118871003346L708.754375,202.86043695745815L715.9865625,205.39018221580773L723.21875,223.988231225414L730.4509375,236.315650352565L737.683125,241.28099802979514L744.9153125,245.8692452476976L752.1475,247.68051648799138L759.3796875,249.7251759046065L766.611875,251.04178519005947L773.8440625000001,253.21457222368952L781.0762500000001,253.95790621605536L788.3084375000001,254.90104320855275L795.5406250000001,256.6395489070526L802.7728125000001,257.7788996114567L810.0050000000001,256.7377070917713L817.2371874999999,256.8851923132322L824.4693749999999,261.1826086566023L831.7015624999999,260.7589769396613L838.9337499999999,259.92099489883856L846.1659374999999,265.26050052801816L853.3981249999999,258.9419154628569L860.6303125,264.6919516592113L867.8625,264.522415558831L875.0946875,263.73830907335747L882.326875,267.77326221234864L889.5590625,263.4054101373938L896.79125,267.237987569088L904.0234375,265.31775744232755L911.255625,266.8840003178089L918.4878125,271.4139844904823L925.72,270.5284824260197L932.9521875,270.9694940983228L940.184375,268.9812653482007L947.4165625,271.92619464081656L954.6487500000001,269.1646016642796L961.8809375000001,274.2909638682349L969.1131250000001,276.2012738529293L976.3453125000001,274.42527326487004L983.5775000000001,274.62723894485646L990.8096875000001,277.7490714838409L998.0418749999999,272.1195763717143L1005.2740624999999,274.42527326487004L1012.5062499999999,273.690403012652L1019.7384374999999,280.75212441175063L1026.970625,281.73873335789597L1034.2028125,279.7824927222172L1041.435,284.40402509295006L1048.6671875,284.96878775253396L1055.899375,283.6861545834964L1063.1315625,286.7813850499709L1070.36375,281.96897468301927L1077.5959375,289.26321760238375L1084.828125,286.3642138719606L1092.0603125,286.6141955478257L1099.2925,282.9773144323304L1106.5246875,287.71002764374765L1113.756875,286.0327849031684L1120.9890625,285.53926802885627L1128.22125,285.53926802885627L1135.4534375,288.5676204292502L1142.685625,285.1311590197404L1149.9178125,283.291202077426L1157.15,286.2810500362947L1164.3821875,286.1153362733219L1171.614375,288.9143456997458L1178.8465625,286.6141955478257L1186.07875,290.2340367166597L1193.3109375,288.05150015659177L1200.543125,290.41260237025205L1207.7753125,291.403603728946L1215.0075,287.7950749420527L1222.2396875,288.1370647845105L1229.471875,293.3451949487931L1236.7040625,282.509737157315L1243.93625,290.2340367166597L1251.1684375,283.84486657725176L1258.400625,284.96878775253396L1265.6328125,291.9515123143738L1272.865,286.4472525655986L1280.0971875,288.74071638779395L1287.329375,287.2859506033331L1294.5615625,288.9143456997458" style="fill: none;" fill="none"></path></g></g></g></g></g></g><g transform="translate(51, 377)" clip-path="url(#clip_1)"><clipPath id="clip_1"><rect width="1446" height="23"></rect></clipPath><g><g><line x1="0" y1="0" x2="0" y2="5" style="visibility: inherit;" fill="rgb(0, 0, 0)" stroke="rgb(204, 204, 204)" stroke-width="1px"></line><line x1="144.64375" y1="0" x2="144.64375" y2="5" style="visibility: inherit;" fill="rgb(0, 0, 0)" stroke="rgb(204, 204, 204)" stroke-width="1px"></line><line x1="289.2875" y1="0" x2="289.2875" y2="5" style="visibility: inherit;" fill="rgb(0, 0, 0)" stroke="rgb(204, 204, 204)" stroke-width="1px"></line><line x1="433.93125" y1="0" x2="433.93125" y2="5" style="visibility: inherit;" fill="rgb(0, 0, 0)" stroke="rgb(204, 204, 204)" stroke-width="1px"></line><line x1="578.575" y1="0" x2="578.575" y2="5" style="visibility: inherit;" fill="rgb(0, 0, 0)" stroke="rgb(204, 204, 204)" stroke-width="1px"></line><line x1="723.21875" y1="0" x2="723.21875" y2="5" style="visibility: inherit;" fill="rgb(0, 0, 0)" stroke="rgb(204, 204, 204)" stroke-width="1px"></line><line x1="867.8625" y1="0" x2="867.8625" y2="5" style="visibility: inherit;" fill="rgb(0, 0, 0)" stroke="rgb(204, 204, 204)" stroke-width="1px"></line><line x1="1012.5062499999999" y1="0" x2="1012.5062499999999" y2="5" style="visibility: inherit;" fill="rgb(0, 0, 0)" stroke="rgb(204, 204, 204)" stroke-width="1px"></line><line x1="1157.15" y1="0" x2="1157.15" y2="5" style="visibility: inherit;" fill="rgb(0, 0, 0)" stroke="rgb(204, 204, 204)" stroke-width="1px"></line><line x1="1301.79375" y1="0" x2="1301.79375" y2="5" style="visibility: inherit;" fill="rgb(0, 0, 0)" stroke="rgb(204, 204, 204)" stroke-width="1px"></line><line x1="1446.4375" y1="0" x2="1446.4375" y2="5" style="visibility: inherit;" fill="rgb(0, 0, 0)" stroke="rgb(204, 204, 204)" stroke-width="1px"></line></g><g transform="translate(0, 8)"><text x="0" y="0" dx="0em" dy="0.95em" style="text-anchor: middle; visibility: hidden; font-family: Roboto, sans-serif; font-size: 12px; font-weight: 200;" fill="rgb(33, 33, 33)" stroke="none" stroke-width="1px">-20</text><text x="144.64375" y="0" dx="0em" dy="0.95em" style="text-anchor: middle; visibility: inherit; font-family: Roboto, sans-serif; font-size: 12px; font-weight: 200;" fill="rgb(33, 33, 33)" stroke="none" stroke-width="1px">0</text><text x="289.2875" y="0" dx="0em" dy="0.95em" style="text-anchor: middle; visibility: inherit; font-family: Roboto, sans-serif; font-size: 12px; font-weight: 200;" fill="rgb(33, 33, 33)" stroke="none" stroke-width="1px">20</text><text x="433.93125" y="0" dx="0em" dy="0.95em" style="text-anchor: middle; visibility: inherit; font-family: Roboto, sans-serif; font-size: 12px; font-weight: 200;" fill="rgb(33, 33, 33)" stroke="none" stroke-width="1px">40</text><text x="578.575" y="0" dx="0em" dy="0.95em" style="text-anchor: middle; visibility: inherit; font-family: Roboto, sans-serif; font-size: 12px; font-weight: 200;" fill="rgb(33, 33, 33)" stroke="none" stroke-width="1px">60</text><text x="723.21875" y="0" dx="0em" dy="0.95em" style="text-anchor: middle; visibility: inherit; font-family: Roboto, sans-serif; font-size: 12px; font-weight: 200;" fill="rgb(33, 33, 33)" stroke="none" stroke-width="1px">80</text><text x="867.8625" y="0" dx="0em" dy="0.95em" style="text-anchor: middle; visibility: inherit; font-family: Roboto, sans-serif; font-size: 12px; font-weight: 200;" fill="rgb(33, 33, 33)" stroke="none" stroke-width="1px">100</text><text x="1012.5062499999999" y="0" dx="0em" dy="0.95em" style="text-anchor: middle; visibility: inherit; font-family: Roboto, sans-serif; font-size: 12px; font-weight: 200;" fill="rgb(33, 33, 33)" stroke="none" stroke-width="1px">120</text><text x="1157.15" y="0" dx="0em" dy="0.95em" style="text-anchor: middle; visibility: inherit; font-family: Roboto, sans-serif; font-size: 12px; font-weight: 200;" fill="rgb(33, 33, 33)" stroke="none" stroke-width="1px">140</text><text x="1301.79375" y="0" dx="0em" dy="0.95em" style="text-anchor: middle; visibility: inherit; font-family: Roboto, sans-serif; font-size: 12px; font-weight: 200;" fill="rgb(33, 33, 33)" stroke="none" stroke-width="1px">160</text><text x="1446.4375" y="0" dx="0em" dy="0.95em" style="text-anchor: middle; visibility: hidden; font-family: Roboto, sans-serif; font-size: 12px; font-weight: 200;" fill="rgb(33, 33, 33)" stroke="none" stroke-width="1px">180</text></g><line x1="0" y1="0" x2="1446.4375" y2="0" fill="rgb(0, 0, 0)" stroke="rgb(204, 204, 204)" stroke-width="1px"></line></g></g></g></g></svg>