<svg viewBox="0 0 1498 400" xmlns="http://www.w3.org/2000/svg"><g><g><g><g><g><line x1="51.5625" y1="367.06477794637345" x2="46.5625" y2="367.06477794637345" style="visibility: inherit;" fill="rgb(0, 0, 0)" stroke="rgb(204, 204, 204)" stroke-width="1px"></line><line x1="51.5625" y1="357.2733091308198" x2="46.5625" y2="357.2733091308198" style="visibility: inherit;" fill="rgb(0, 0, 0)" stroke="rgb(204, 204, 204)" stroke-width="1px"></line><line x1="51.5625" y1="348.7915530448551" x2="46.5625" y2="348.7915530448551" style="visibility: inherit;" fill="rgb(0, 0, 0)" stroke="rgb(204, 204, 204)" stroke-width="1px"></line><line x1="51.5625" y1="341.31011396250346" x2="46.5625" y2="341.31011396250346" style="visibility: inherit;" fill="rgb(0, 0, 0)" stroke="rgb(204, 204, 204)" stroke-width="1px"></line><line x1="51.5625" y1="334.61773865406946" x2="46.5625" y2="334.61773865406946" style="visibility: inherit;" fill="rgb(0, 0, 0)" stroke="rgb(204, 204, 204)" stroke-width="1px"></line><line x1="51.5625" y1="290.5898497686811" x2="46.5625" y2="290.5898497686811" style="visibility: inherit;" fill="rgb(0, 0, 0)" stroke="rgb(204, 204, 204)" stroke-width="1px"></line><line x1="51.5625" y1="264.83518578481124" x2="46.5625" y2="264.83518578481124" style="visibility: inherit;" fill="rgb(0, 0, 0)" stroke="rgb(204, 204, 204)" stroke-width="1px"></line><line x1="51.5625" y1="246.5619608832928" x2="46.5625" y2="246.5619608832928" style="visibility: inherit;" fill="rgb(0, 0, 0)" stroke="rgb(204, 204, 204)" stroke-width="1px"></line><line x1="51.5625" y1="232.38814649250727" x2="46.5625" y2="232.38814649250727" style="visibility: inherit;" fill="rgb(0, 0, 0)" stroke="rgb(204, 204, 204)" stroke-width="1px"></line><line x1="51.5625" y1="220.80729689942285" x2="46.5625" y2="220.80729689942285" style="visibility: inherit;" fill="rgb(0, 0, 0)" stroke="rgb(204, 204, 204)" stroke-width="1px"></line><line x1="51.5625" y1="211.01582808386922" x2="46.5625" y2="211.01582808386922" style="visibility: inherit;" fill="rgb(0, 0, 0)" stroke="rgb(204, 204, 204)" stroke-width="1px"></line><line x1="51.5625" y1="202.53407199790448" x2="46.5625" y2="202.53407199790448" style="visibility: inherit;" fill="rgb(0, 0, 0)" stroke="rgb(204, 204, 204)" stroke-width="1px"></line><line x1="51.5625" y1="195.05263291555286" x2="46.5625" y2="195.05263291555286" style="visibility: inherit;" fill="rgb(0, 0, 0)" stroke="rgb(204, 204, 204)" stroke-width="1px"></line><line x1="51.5625" y1="188.3602576071189" x2="46.5625" y2="188.3602576071189" style="visibility: inherit;" fill="rgb(0, 0, 0)" stroke="rgb(204, 204, 204)" stroke-width="1px"></line><line x1="51.5625" y1="144.33236872173057" x2="46.5625" y2="144.33236872173057" style="visibility: inherit;" fill="rgb(0, 0, 0)" stroke="rgb(204, 204, 204)" stroke-width="1px"></line><line x1="51.5625" y1="118.57770473786059" x2="46.5625" y2="118.57770473786059" style="visibility: inherit;" fill="rgb(0, 0, 0)" stroke="rgb(204, 204, 204)" stroke-width="1px"></line><line x1="51.5625" y1="100.30447983634222" x2="46.5625" y2="100.30447983634222" style="visibility: inherit;" fill="rgb(0, 0, 0)" stroke="rgb(204, 204, 204)" stroke-width="1px"></line><line x1="51.5625" y1="86.13066544555666" x2="46.5625" y2="86.13066544555666" style="visibility: inherit;" fill="rgb(0, 0, 0)" stroke="rgb(204, 204, 204)" stroke-width="1px"></line><line x1="51.5625" y1="74.54981585247224" x2="46.5625" y2="74.54981585247224" style="visibility: inherit;" fill="rgb(0, 0, 0)" stroke="rgb(204, 204, 204)" stroke-width="1px"></line><line x1="51.5625" y1="64.75834703691865" x2="46.5625" y2="64.75834703691865" style="visibility: inherit;" fill="rgb(0, 0, 0)" stroke="rgb(204, 204, 204)" stroke-width="1px"></line><line x1="51.5625" y1="56.27659095095388" x2="46.5625" y2="56.27659095095388" style="visibility: inherit;" fill="rgb(0, 0, 0)" stroke="rgb(204, 204, 204)" stroke-width="1px"></line><line x1="51.5625" y1="48.795151868602254" x2="46.5625" y2="48.795151868602254" style="visibility: inherit;" fill="rgb(0, 0, 0)" stroke="rgb(204, 204, 204)" stroke-width="1px"></line><line x1="51.5625" y1="42.102776560168316" x2="46.5625" y2="42.102776560168316" style="visibility: inherit;" fill="rgb(0, 0, 0)" stroke="rgb(204, 204, 204)" stroke-width="1px"></line></g><g transform="translate(41.5625, 0)"><text x="0" y="367.06477794637345" dx="0em" dy="0.3em" style="text-anchor: end; visibility: inherit; font-family: Roboto, sans-serif; font-size: 12px; font-weight: 200;" fill="rgb(33, 33, 33)" stroke="none" stroke-width="1px">6e-3</text><text x="0" y="357.2733091308198" dx="0em" dy="0.3em" style="text-anchor: end; visibility: hidden; font-family: Roboto, sans-serif; font-size: 12px; font-weight: 200;" fill="rgb(33, 33, 33)" stroke="none" stroke-width="1px">7e-3</text><text x="0" y="348.7915530448551" dx="0em" dy="0.3em" style="text-anchor: end; visibility: hidden; font-family: Roboto, sans-serif; font-size: 12px; font-weight: 200;" fill="rgb(33, 33, 33)" stroke="none" stroke-width="1px">8e-3</text><text x="0" y="341.31011396250346" dx="0em" dy="0.3em" style="text-anchor: end; visibility: inherit; font-family: Roboto, sans-serif; font-size: 12px; font-weight: 200;" fill="rgb(33, 33, 33)" stroke="none" stroke-width="1px">9e-3</text><text x="0" y="334.61773865406946" dx="0em" dy="0.3em" style="text-anchor: end; visibility: hidden; font-family: Roboto, sans-serif; font-size: 12px; font-weight: 200;" fill="rgb(33, 33, 33)" stroke="none" stroke-width="1px">0.01</text><text x="0" y="290.5898497686811" dx="0em" dy="0.3em" style="text-anchor: end; visibility: hidden; font-family: Roboto, sans-serif; font-size: 12px; font-weight: 200;" fill="rgb(33, 33, 33)" stroke="none" stroke-width="1px">0.02</text><text x="0" y="264.83518578481124" dx="0em" dy="0.3em" style="text-anchor: end; visibility: inherit; font-family: Roboto, sans-serif; font-size: 12px; font-weight: 200;" fill="rgb(33, 33, 33)" stroke="none" stroke-width="1px">0.03</text><text x="0" y="246.5619608832928" dx="0em" dy="0.3em" style="text-anchor: end; visibility: hidden; font-family: Roboto, sans-serif; font-size: 12px; font-weight: 200;" fill="rgb(33, 33, 33)" stroke="none" stroke-width="1px">0.04</text><text x="0" y="232.38814649250727" dx="0em" dy="0.3em" style="text-anchor: end; visibility: hidden; font-family: Roboto, sans-serif; font-size: 12px; font-weight: 200;" fill="rgb(33, 33, 33)" stroke="none" stroke-width="1px">0.05</text><text x="0" y="220.80729689942285" dx="0em" dy="0.3em" style="text-anchor: end; visibility: inherit; font-family: Roboto, sans-serif; font-size: 12px; font-weight: 200;" fill="rgb(33, 33, 33)" stroke="none" stroke-width="1px">0.06</text><text x="0" y="211.01582808386922" dx="0em" dy="0.3em" style="text-anchor: end; visibility: hidden; font-family: Roboto, sans-serif; font-size: 12px; font-weight: 200;" fill="rgb(33, 33, 33)" stroke="none" stroke-width="1px">0.07</text><text x="0" y="202.53407199790448" dx="0em" dy="0.3em" style="text-anchor: end; visibility: hidden; font-family: Roboto, sans-serif; font-size: 12px; font-weight: 200;" fill="rgb(33, 33, 33)" stroke="none" stroke-width="1px">0.08</text><text x="0" y="195.05263291555286" dx="0em" dy="0.3em" style="text-anchor: end; visibility: inherit; font-family: Roboto, sans-serif; font-size: 12px; font-weight: 200;" fill="rgb(33, 33, 33)" stroke="none" stroke-width="1px">0.09</text><text x="0" y="188.3602576071189" dx="0em" dy="0.3em" style="text-anchor: end; visibility: hidden; font-family: Roboto, sans-serif; font-size: 12px; font-weight: 200;" fill="rgb(33, 33, 33)" stroke="none" stroke-width="1px">0.1</text><text x="0" y="144.33236872173057" dx="0em" dy="0.3em" style="text-anchor: end; visibility: hidden; font-family: Roboto, sans-serif; font-size: 12px; font-weight: 200;" fill="rgb(33, 33, 33)" stroke="none" stroke-width="1px">0.2</text><text x="0" y="118.57770473786059" dx="0em" dy="0.3em" style="text-anchor: end; visibility: inherit; font-family: Roboto, sans-serif; font-size: 12px; font-weight: 200;" fill="rgb(33, 33, 33)" stroke="none" stroke-width="1px">0.3</text><text x="0" y="100.30447983634222" dx="0em" dy="0.3em" style="text-anchor: end; visibility: hidden; font-family: Roboto, sans-serif; font-size: 12px; font-weight: 200;" fill="rgb(33, 33, 33)" stroke="none" stroke-width="1px">0.4</text><text x="0" y="86.13066544555666" dx="0em" dy="0.3em" style="text-anchor: end; visibility: hidden; font-family: Roboto, sans-serif; font-size: 12px; font-weight: 200;" fill="rgb(33, 33, 33)" stroke="none" stroke-width="1px">0.5</text><text x="0" y="74.54981585247224" dx="0em" dy="0.3em" style="text-anchor: end; visibility: inherit; font-family: Roboto, sans-serif; font-size: 12px; font-weight: 200;" fill="rgb(33, 33, 33)" stroke="none" stroke-width="1px">0.6</text><text x="0" y="64.75834703691865" dx="0em" dy="0.3em" style="text-anchor: end; visibility: hidden; font-family: Roboto, sans-serif; font-size: 12px; font-weight: 200;" fill="rgb(33, 33, 33)" stroke="none" stroke-width="1px">0.7</text><text x="0" y="56.27659095095388" dx="0em" dy="0.3em" style="text-anchor: end; visibility: hidden; font-family: Roboto, sans-serif; font-size: 12px; font-weight: 200;" fill="rgb(33, 33, 33)" stroke="none" stroke-width="1px">0.8</text><text x="0" y="48.795151868602254" dx="0em" dy="0.3em" style="text-anchor: end; visibility: inherit; font-family: Roboto, sans-serif; font-size: 12px; font-weight: 200;" fill="rgb(33, 33, 33)" stroke="none" stroke-width="1px">0.9</text><text x="0" y="42.102776560168316" dx="0em" dy="0.3em" style="text-anchor: end; visibility: hidden; font-family: Roboto, sans-serif; font-size: 12px; font-weight: 200;" fill="rgb(33, 33, 33)" stroke="none" stroke-width="1px">1</text></g><line x1="51.5625" y1="0" x2="51.5625" y2="377" fill="rgb(0, 0, 0)" stroke="rgb(204, 204, 204)" stroke-width="1px"></line></g></g><g transform="translate(51, 0)" clip-path="url(#clip_0)"><clipPath id="clip_0"><rect width="1446" height="377"></rect></clipPath><g><g><g><line x1="0" y1="0" x2="0" y2="377" fill="rgb(0, 0, 0)" stroke="rgb(66, 66, 66)" stroke-width="1px" opacity="0.25"></line><line x1="144.64375" y1="0" x2="144.64375" y2="377" fill="rgb(0, 0, 0)" stroke="rgb(66, 66, 66)" stroke-width="1px" opacity="0.25"></line><line x1="289.2875" y1="0" x2="289.2875" y2="377" fill="rgb(0, 0, 0)" stroke="rgb(66, 66, 66)" stroke-width="1px" opacity="0.25"></line><line x1="433.93125" y1="0" x2="433.93125" y2="377" fill="rgb(0, 0, 0)" stroke="rgb(66, 66, 66)" stroke-width="1px" opacity="0.25"></line><line x1="578.575" y1="0" x2="578.575" y2="377" fill="rgb(0, 0, 0)" stroke="rgb(66, 66, 66)" stroke-width="1px" opacity="0.25"></line><line x1="723.21875" y1="0" x2="723.21875" y2="377" fill="rgb(0, 0, 0)" stroke="rgb(66, 66, 66)" stroke-width="1px" opacity="0.25"></line><line x1="867.8625" y1="0" x2="867.8625" y2="377" fill="rgb(0, 0, 0)" stroke="rgb(66, 66, 66)" stroke-width="1px" opacity="0.25"></line><line x1="1012.5062499999999" y1="0" x2="1012.5062499999999" y2="377" fill="rgb(0, 0, 0)" stroke="rgb(66, 66, 66)" stroke-width="1px" opacity="0.25"></line><line x1="1157.15" y1="0" x2="1157.15" y2="377" fill="rgb(0, 0, 0)" stroke="rgb(66, 66, 66)" stroke-width="1px" opacity="0.25"></line><line x1="1301.79375" y1="0" x2="1301.79375" y2="377" fill="rgb(0, 0, 0)" stroke="rgb(66, 66, 66)" stroke-width="1px" opacity="0.25"></line><line x1="1446.4375" y1="0" x2="1446.4375" y2="377" fill="rgb(0, 0, 0)" stroke="rgb(66, 66, 66)" stroke-width="1px" opacity="0.25"></line></g><g><line x1="0" y1="367.06477794637345" x2="1446.4375" y2="367.06477794637345" fill="rgb(0, 0, 0)" stroke="rgb(66, 66, 66)" stroke-width="1px" opacity="0.25"></line><line x1="0" y1="357.2733091308198" x2="1446.4375" y2="357.2733091308198" fill="rgb(0, 0, 0)" stroke="rgb(66, 66, 66)" stroke-width="1px" opacity="0.25"></line><line x1="0" y1="348.7915530448551" x2="1446.4375" y2="348.7915530448551" fill="rgb(0, 0, 0)" stroke="rgb(66, 66, 66)" stroke-width="1px" opacity="0.25"></line><line x1="0" y1="341.31011396250346" x2="1446.4375" y2="341.31011396250346" fill="rgb(0, 0, 0)" stroke="rgb(66, 66, 66)" stroke-width="1px" opacity="0.25"></line><line x1="0" y1="334.61773865406946" x2="1446.4375" y2="334.61773865406946" fill="rgb(0, 0, 0)" stroke="rgb(66, 66, 66)" stroke-width="1px" opacity="0.25"></line><line x1="0" y1="290.5898497686811" x2="1446.4375" y2="290.5898497686811" fill="rgb(0, 0, 0)" stroke="rgb(66, 66, 66)" stroke-width="1px" opacity="0.25"></line><line x1="0" y1="264.83518578481124" x2="1446.4375" y2="264.83518578481124" fill="rgb(0, 0, 0)" stroke="rgb(66, 66, 66)" stroke-width="1px" opacity="0.25"></line><line x1="0" y1="246.5619608832928" x2="1446.4375" y2="246.5619608832928" fill="rgb(0, 0, 0)" stroke="rgb(66, 66, 66)" stroke-width="1px" opacity="0.25"></line><line x1="0" y1="232.38814649250727" x2="1446.4375" y2="232.38814649250727" fill="rgb(0, 0, 0)" stroke="rgb(66, 66, 66)" stroke-width="1px" opacity="0.25"></line><line x1="0" y1="220.80729689942285" x2="1446.4375" y2="220.80729689942285" fill="rgb(0, 0, 0)" stroke="rgb(66, 66, 66)" stroke-width="1px" opacity="0.25"></line><line x1="0" y1="211.01582808386922" x2="1446.4375" y2="211.01582808386922" fill="rgb(0, 0, 0)" stroke="rgb(66, 66, 66)" stroke-width="1px" opacity="0.25"></line><line x1="0" y1="202.53407199790448" x2="1446.4375" y2="202.53407199790448" fill="rgb(0, 0, 0)" stroke="rgb(66, 66, 66)" stroke-width="1px" opacity="0.25"></line><line x1="0" y1="195.05263291555286" x2="1446.4375" y2="195.05263291555286" fill="rgb(0, 0, 0)" stroke="rgb(66, 66, 66)" stroke-width="1px" opacity="0.25"></line><line x1="0" y1="188.3602576071189" x2="1446.4375" y2="188.3602576071189" fill="rgb(0, 0, 0)" stroke="rgb(66, 66, 66)" stroke-width="1px" opacity="0.25"></line><line x1="0" y1="144.33236872173057" x2="1446.4375" y2="144.33236872173057" fill="rgb(0, 0, 0)" stroke="rgb(66, 66, 66)" stroke-width="1px" opacity="0.25"></line><line x1="0" y1="118.57770473786059" x2="1446.4375" y2="118.57770473786059" fill="rgb(0, 0, 0)" stroke="rgb(66, 66, 66)" stroke-width="1px" opacity="0.25"></line><line x1="0" y1="100.30447983634222" x2="1446.4375" y2="100.30447983634222" fill="rgb(0, 0, 0)" stroke="rgb(66, 66, 66)" stroke-width="1px" opacity="0.25"></line><line x1="0" y1="86.13066544555666" x2="1446.4375" y2="86.13066544555666" fill="rgb(0, 0, 0)" stroke="rgb(66, 66, 66)" stroke-width="1px" opacity="0.25"></line><line x1="0" y1="74.54981585247224" x2="1446.4375" y2="74.54981585247224" fill="rgb(0, 0, 0)" stroke="rgb(66, 66, 66)" stroke-width="1px" opacity="0.25"></line><line x1="0" y1="64.75834703691865" x2="1446.4375" y2="64.75834703691865" fill="rgb(0, 0, 0)" stroke="rgb(66, 66, 66)" stroke-width="1px" opacity="0.25"></line><line x1="0" y1="56.27659095095388" x2="1446.4375" y2="56.27659095095388" fill="rgb(0, 0, 0)" stroke="rgb(66, 66, 66)" stroke-width="1px" opacity="0.25"></line><line x1="0" y1="48.795151868602254" x2="1446.4375" y2="48.795151868602254" fill="rgb(0, 0, 0)" stroke="rgb(66, 66, 66)" stroke-width="1px" opacity="0.25"></line><line x1="0" y1="42.102776560168316" x2="1446.4375" y2="42.102776560168316" fill="rgb(0, 0, 0)" stroke="rgb(66, 66, 66)" stroke-width="1px" opacity="0.25"></line></g></g></g><g><g><line x1="144.64375" y1="0" x2="144.64375" y2="377" fill="rgb(0, 0, 0)" stroke="rgb(153, 153, 153)" stroke-width="1.5px"></line></g></g><g><g><g><g><g><path stroke="rgb(51, 187, 238)" stroke-width="2px" d="M144.64375,53.85714285714283L151.8759375,59.18295938378965L159.108125,62.74352314041689L166.3403125,66.36836771660258L173.5725,69.09145168781806L180.8046875,70.97060605625376L188.036875,72.52854218045695L195.26906250000002,73.62914585619235L202.50125000000003,75.69710372452226L209.73343749999998,77.66987315262902L216.965625,79.3600873936277L224.1978125,81.2233735202231L231.43,83.21816390139142L238.66218750000002,84.45571865516766L245.89437500000003,85.95812891094373L253.12656249999998,88.48060503667061L260.35875,90.95920538839358L267.5909375,93.61560101039825L274.823125,96.36406634863526L282.0553125,99.35876994977671L289.2875,101.32254720382161L296.5196875,104.15369895449933L303.751875,105.51108580085273L310.9840625,108.1003201177156L318.21625,111.02855057630349L325.4484375,111.44729057843423L332.680625,114.0943730331466L339.9128125,115.86290472537883L347.145,116.955574876746L354.3771875,119.37025647526268L361.609375,120.46443257280745L368.8415625,122.84219123564682L376.07375,124.2155351833571L383.3059375,125.7423395016974L390.53812500000004,127.3748090974012L397.77031250000005,128.63722208913978L405.00250000000005,129.6877179732981L412.23468749999995,130.65849898942713L419.46687499999996,131.6911821392472L426.69906249999997,133.51299794289352L433.93125,134.47378874641916L441.1634375,135.4769446428659L448.395625,136.2496473914382L455.6278125,138.29570258865627L462.86,139.13879631542264L470.0921875,139.03937435895824L477.32437500000003,140.51744643698692L484.55656250000004,141.1184349085602L491.78875000000005,142.47332937592253L499.02093749999995,142.73294597802817L506.25312499999995,143.11190051734204L513.4853125,145.11206019335492L520.7175,145.57673593342687L527.9496875,146.33917243646533L535.181875,147.5303096472149L542.4140625,147.97945525193043L549.64625,148.46567059631772L556.8784375,150.04428151531508L564.110625,149.38747649959794L571.3428125,150.98945722211687L578.575,150.8978265004751L585.8071875,152.19286528467347L593.039375,152.6401373242149L600.2715625,152.32961059808966L607.50375,154.57322467201524L614.7359375,154.67031800712047L621.968125,155.1731100489809L629.2003125,154.32741635364403L636.4325,155.3919763635527L643.6646875,156.3977942540936L650.896875,156.83710522833957L658.1290625,157.2016538828377L665.36125,157.37301127211242L672.5934375,158.45063720248584L679.825625,159.1365384635923L687.0578125,159.49036099602333L694.29,159.53069965454006L701.5221875,160.24476883260152L708.754375,161.29796277327017L715.9865625,160.98346376213433L723.21875,171.42216735212378L730.4509375,176.80057916023816L737.683125,179.52693564001183L744.9153125,180.18251526906704L752.1475,180.31670196557135L759.3796875,182.1217700823536L766.611875,181.68567528218364L773.8440625000001,182.50288564199099L781.0762500000001,182.87470160138744L788.3084375000001,183.70749047410828L795.5406250000001,183.6602531970045L802.7728125000001,184.5393636867986L810.0050000000001,184.3840489516684L817.2371874999999,185.29747263830774L824.4693749999999,185.11615152792888L831.7015624999999,185.23696272430996L838.9337499999999,185.5400541664417L846.1659374999999,185.93010008849365L853.3981249999999,185.40652150179582L860.6303125,185.94234478512803L867.8625,187.92979560235185L875.0946875,187.75337508876993L882.326875,188.14465440818282L889.5590625,186.8414241912418L896.79125,188.32216656037713L904.0234375,187.65280432576384L911.255625,187.90456802194987L918.4878125,189.1914249510883L925.72,189.12709141617773L932.9521875,189.9033116233642L940.184375,188.80643563455993L947.4165625,189.98144626464398L954.6487500000001,189.4493741494181L961.8809375000001,189.21716894570577L969.1131250000001,190.49173646612664L976.3453125000001,190.46547078314316L983.5775000000001,190.76824285788527L990.8096875000001,191.17860329438187L998.0418749999999,190.70229313145126L1005.2740624999999,190.36051652795658L1012.5062499999999,191.0591904866921L1019.7384374999999,191.89979318686485L1026.970625,192.9561887046348L1034.2028125,194.89757210047065L1041.435,194.6866744043203L1048.6671875,194.47651630947914L1055.899375,195.02438878202582L1063.1315625,195.17977841441834L1070.36375,195.56282036435243L1077.5959375,196.13456041172861L1084.828125,194.71474530344526L1092.0603125,194.84123905620396L1099.2925,194.89757210047065L1106.5246875,195.64824124461455L1113.756875,195.53437224632745L1120.9890625,196.22075417006187L1128.22125,195.40649199958932L1135.4534375,196.7839476043947L1142.685625,195.3497482622548L1149.9178125,195.80516645745948L1157.15,196.3791019597781L1164.3821875,195.6197548520604L1171.614375,197.63089627932624L1178.8465625,195.49170276514806L1186.07875,196.16327867055557L1193.3109375,195.09498479245863L1200.543125,196.33590435158936L1207.7753125,196.68252639989916L1215.0075,195.80516645745948L1222.2396875,196.75494741631513L1229.471875,196.22075417006187L1236.7040625,196.85652769336153L1243.93625,196.4656284222278L1251.1684375,197.58679543114505L1258.400625,196.8855743067094L1265.6328125,196.22075417006187L1272.865,196.90012425011835L1280.0971875,197.51342029634569L1287.329375,196.24951143427072L1294.5615625,197.14763676563516" style="fill: none;" fill="none"></path></g><g><path stroke="rgb(0, 119, 187)" stroke-width="2px" d="M144.64375,71.1710539959978L151.8759375,91.59565463417744L159.108125,104.66867513750888L166.3403125,114.63330905960173L173.5725,121.62664008413427L180.8046875,128.23662846796003L188.036875,134.31084165430678L195.26906250000002,137.77225732051843L202.50125000000003,142.39935817915656L209.73343749999998,144.73380136318914L216.965625,147.35020289804473L224.1978125,150.09295088413594L231.43,152.29359417894813L238.66218750000002,154.53593595386033L245.89437500000003,157.90560093309514L253.12656249999998,159.92732206365L260.35875,161.83118152216622L267.5909375,163.4668030383649L274.823125,165.9171954395372L282.0553125,167.57136480173543L289.2875,169.25093205582772L296.5196875,169.91258944762524L303.751875,172.20537736547533L310.9840625,173.5594338024741L318.21625,175.32466215519244L325.4484375,175.63584686278696L332.680625,178.3984152571306L339.9128125,178.05186317768636L347.145,180.83366487665842L354.3771875,180.2383947227563L361.609375,182.54926969770153L368.8415625,183.40123181969L376.07375,183.9203351557994L383.3059375,184.75501898737298L390.53812500000004,187.57748061440765L397.77031250000005,188.081371858425L405.00250000000005,187.84152409562523L412.23468749999995,189.46227796044263L419.46687499999996,190.13804341526438L426.69906249999997,190.9267548304341L433.93125,192.94255530184162L441.1634375,193.87788563270468L448.395625,194.03049232965685L455.6278125,194.7288063328617L462.86,196.63907888635165L470.0921875,197.76333893528215L477.32437500000003,197.41078490831356L484.55656250000004,198.9829065529216L491.78875000000005,200.07337679828782L499.02093749999995,202.51818596628402L506.25312499999995,202.043706145507L513.4853125,201.8077887705005L520.7175,203.81731123992128L527.9496875,203.1884977973212L535.181875,205.2098205425045L542.4140625,204.46880294925052L549.64625,206.24507620656246L556.8784375,208.19386560644432L564.110625,206.3462040501318L571.3428125,208.8394333059682L578.575,208.52459167567216L585.8071875,212.00345638304037L593.039375,213.02543133427534L600.2715625,212.00345638304037L607.50375,211.4163572128344L614.7359375,213.42004967436105L621.968125,215.00403720101633L629.2003125,215.93843328107934L636.4325,213.76018367591797L643.6646875,215.23632184456005L650.896875,216.3910561708144L658.1290625,215.64496250629253L665.36125,218.41789129420505L672.5934375,218.2956775137628L679.825625,220.25917930296444L687.0578125,219.03263519516983L694.29,221.48844113849975L701.5221875,222.89501869388442L708.754375,221.14698644231493L715.9865625,223.9985558779169L723.21875,244.96257505833853L730.4509375,258.8582396462317L737.683125,264.4552591986132L744.9153125,269.6272050640606L752.1475,271.66889906125635L759.3796875,273.97367195465006L766.611875,275.45777506133084L773.8440625000001,277.90697545995664L781.0762500000001,278.7448734601915L788.3084375000001,279.8079926072734L795.5406250000001,281.7676641185054L802.7728125000001,283.0519585091707L810.0050000000001,281.87830959890476L817.2371874999999,282.0445573063895L824.4693749999999,286.8886739447602L831.7015624999999,286.41114947782285L838.9337499999999,285.46656267909026L846.1659374999999,291.4853390768872L853.3981249999999,284.3629286331495L860.6303125,290.84446167170796L867.8625,290.65335785978067L875.0946875,289.76950045127126L882.326875,294.31776435541644L889.5590625,289.39425143052296L896.79125,293.7143941910344L904.0234375,291.54987998917187L911.255625,293.3153740829787L918.4878125,298.42164490922926L925.72,297.42349277756705L932.9521875,297.92060820898547L940.184375,295.67944486808364L947.4165625,298.99901640720026L954.6487500000001,295.8861045045198L961.8809375000001,301.66462221430726L969.1131250000001,303.81795427290115L976.3453125000001,301.8160179206912L983.5775000000001,302.0436768749629L990.8096875000001,305.5626565911433L998.0418749999999,299.21699939636153L1005.2740624999999,301.8160179206912L1012.5062499999999,300.98766038412026L1019.7384374999999,308.94774602434154L1026.970625,310.05986745492186L1034.2028125,307.85476162975135L1041.435,313.0642270534063L1048.6671875,313.7008365828137L1055.899375,312.2550318995773L1063.1315625,315.7440253328928L1070.36375,310.31939916996987L1077.5959375,318.5415867977811L1084.828125,315.27378328907366L1092.0603125,315.5555666441386L1099.2925,311.4560159104689L1106.5246875,316.7908061612279L1113.756875,314.9001912389012L1120.9890625,314.3438911015267L1128.22125,314.3438911015267L1135.4534375,317.7574985059454L1142.685625,313.8838640798542L1149.9178125,311.809835099185L1157.15,315.1800396794554L1164.3821875,314.99324446756907L1171.614375,318.14833279277053L1178.8465625,315.5555666441386L1186.07875,319.6359096765889L1193.3109375,317.1757194553672L1200.543125,319.8371917457425L1207.7753125,320.95426437420764L1215.0075,316.8866728401462L1222.2396875,317.2721692765247L1229.471875,323.1428571428571L1236.7040625,310.92895530552653L1243.93625,319.6359096765889L1251.1684375,312.4339346048843L1258.400625,313.7008365828137L1265.6328125,321.5718757208652L1272.865,315.3673858365906L1280.0971875,317.95261504709924L1287.329375,316.3127797185277L1294.5615625,318.14833279277053" style="fill: none;" fill="none"></path></g></g></g></g></g></g><g transform="translate(51, 377)" clip-path="url(#clip_1)"><clipPath id="clip_1"><rect width="1446" height="23"></rect></clipPath><g><g><line x1="0" y1="0" x2="0" y2="5" style="visibility: inherit;" fill="rgb(0, 0, 0)" stroke="rgb(204, 204, 204)" stroke-width="1px"></line><line x1="144.64375" y1="0" x2="144.64375" y2="5" style="visibility: inherit;" fill="rgb(0, 0, 0)" stroke="rgb(204, 204, 204)" stroke-width="1px"></line><line x1="289.2875" y1="0" x2="289.2875" y2="5" style="visibility: inherit;" fill="rgb(0, 0, 0)" stroke="rgb(204, 204, 204)" stroke-width="1px"></line><line x1="433.93125" y1="0" x2="433.93125" y2="5" style="visibility: inherit;" fill="rgb(0, 0, 0)" stroke="rgb(204, 204, 204)" stroke-width="1px"></line><line x1="578.575" y1="0" x2="578.575" y2="5" style="visibility: inherit;" fill="rgb(0, 0, 0)" stroke="rgb(204, 204, 204)" stroke-width="1px"></line><line x1="723.21875" y1="0" x2="723.21875" y2="5" style="visibility: inherit;" fill="rgb(0, 0, 0)" stroke="rgb(204, 204, 204)" stroke-width="1px"></line><line x1="867.8625" y1="0" x2="867.8625" y2="5" style="visibility: inherit;" fill="rgb(0, 0, 0)" stroke="rgb(204, 204, 204)" stroke-width="1px"></line><line x1="1012.5062499999999" y1="0" x2="1012.5062499999999" y2="5" style="visibility: inherit;" fill="rgb(0, 0, 0)" stroke="rgb(204, 204, 204)" stroke-width="1px"></line><line x1="1157.15" y1="0" x2="1157.15" y2="5" style="visibility: inherit;" fill="rgb(0, 0, 0)" stroke="rgb(204, 204, 204)" stroke-width="1px"></line><line x1="1301.79375" y1="0" x2="1301.79375" y2="5" style="visibility: inherit;" fill="rgb(0, 0, 0)" stroke="rgb(204, 204, 204)" stroke-width="1px"></line><line x1="1446.4375" y1="0" x2="1446.4375" y2="5" style="visibility: inherit;" fill="rgb(0, 0, 0)" stroke="rgb(204, 204, 204)" stroke-width="1px"></line></g><g transform="translate(0, 8)"><text x="0" y="0" dx="0em" dy="0.95em" style="text-anchor: middle; visibility: hidden; font-family: Roboto, sans-serif; font-size: 12px; font-weight: 200;" fill="rgb(33, 33, 33)" stroke="none" stroke-width="1px">-20</text><text x="144.64375" y="0" dx="0em" dy="0.95em" style="text-anchor: middle; visibility: inherit; font-family: Roboto, sans-serif; font-size: 12px; font-weight: 200;" fill="rgb(33, 33, 33)" stroke="none" stroke-width="1px">0</text><text x="289.2875" y="0" dx="0em" dy="0.95em" style="text-anchor: middle; visibility: inherit; font-family: Roboto, sans-serif; font-size: 12px; font-weight: 200;" fill="rgb(33, 33, 33)" stroke="none" stroke-width="1px">20</text><text x="433.93125" y="0" dx="0em" dy="0.95em" style="text-anchor: middle; visibility: inherit; font-family: Roboto, sans-serif; font-size: 12px; font-weight: 200;" fill="rgb(33, 33, 33)" stroke="none" stroke-width="1px">40</text><text x="578.575" y="0" dx="0em" dy="0.95em" style="text-anchor: middle; visibility: inherit; font-family: Roboto, sans-serif; font-size: 12px; font-weight: 200;" fill="rgb(33, 33, 33)" stroke="none" stroke-width="1px">60</text><text x="723.21875" y="0" dx="0em" dy="0.95em" style="text-anchor: middle; visibility: inherit; font-family: Roboto, sans-serif; font-size: 12px; font-weight: 200;" fill="rgb(33, 33, 33)" stroke="none" stroke-width="1px">80</text><text x="867.8625" y="0" dx="0em" dy="0.95em" style="text-anchor: middle; visibility: inherit; font-family: Roboto, sans-serif; font-size: 12px; font-weight: 200;" fill="rgb(33, 33, 33)" stroke="none" stroke-width="1px">100</text><text x="1012.5062499999999" y="0" dx="0em" dy="0.95em" style="text-anchor: middle; visibility: inherit; font-family: Roboto, sans-serif; font-size: 12px; font-weight: 200;" fill="rgb(33, 33, 33)" stroke="none" stroke-width="1px">120</text><text x="1157.15" y="0" dx="0em" dy="0.95em" style="text-anchor: middle; visibility: inherit; font-family: Roboto, sans-serif; font-size: 12px; font-weight: 200;" fill="rgb(33, 33, 33)" stroke="none" stroke-width="1px">140</text><text x="1301.79375" y="0" dx="0em" dy="0.95em" style="text-anchor: middle; visibility: inherit; font-family: Roboto, sans-serif; font-size: 12px; font-weight: 200;" fill="rgb(33, 33, 33)" stroke="none" stroke-width="1px">160</text><text x="1446.4375" y="0" dx="0em" dy="0.95em" style="text-anchor: middle; visibility: hidden; font-family: Roboto, sans-serif; font-size: 12px; font-weight: 200;" fill="rgb(33, 33, 33)" stroke="none" stroke-width="1px">180</text></g><line x1="0" y1="0" x2="1446.4375" y2="0" fill="rgb(0, 0, 0)" stroke="rgb(204, 204, 204)" stroke-width="1px"></line></g></g></g></g></svg>