<svg viewBox="0 0 1498 400" xmlns="http://www.w3.org/2000/svg"><g><g><g><g><g><line x1="51.5625" y1="364.23297806767505" x2="46.5625" y2="364.23297806767505" style="visibility: inherit;" fill="rgb(0, 0, 0)" stroke="rgb(204, 204, 204)" stroke-width="1px"></line><line x1="51.5625" y1="350.5559019663067" x2="46.5625" y2="350.5559019663067" style="visibility: inherit;" fill="rgb(0, 0, 0)" stroke="rgb(204, 204, 204)" stroke-width="1px"></line><line x1="51.5625" y1="339.38091710788444" x2="46.5625" y2="339.38091710788444" style="visibility: inherit;" fill="rgb(0, 0, 0)" stroke="rgb(204, 204, 204)" stroke-width="1px"></line><line x1="51.5625" y1="329.9326020360035" x2="46.5625" y2="329.9326020360035" style="visibility: inherit;" fill="rgb(0, 0, 0)" stroke="rgb(204, 204, 204)" stroke-width="1px"></line><line x1="51.5625" y1="321.74809924355833" x2="46.5625" y2="321.74809924355833" style="visibility: inherit;" fill="rgb(0, 0, 0)" stroke="rgb(204, 204, 204)" stroke-width="1px"></line><line x1="51.5625" y1="314.52885614809384" x2="46.5625" y2="314.52885614809384" style="visibility: inherit;" fill="rgb(0, 0, 0)" stroke="rgb(204, 204, 204)" stroke-width="1px"></line><line x1="51.5625" y1="308.0710231421899" x2="46.5625" y2="308.0710231421899" style="visibility: inherit;" fill="rgb(0, 0, 0)" stroke="rgb(204, 204, 204)" stroke-width="1px"></line><line x1="51.5625" y1="265.5861443180732" x2="46.5625" y2="265.5861443180732" style="visibility: inherit;" fill="rgb(0, 0, 0)" stroke="rgb(204, 204, 204)" stroke-width="1px"></line><line x1="51.5625" y1="240.73408335828262" x2="46.5625" y2="240.73408335828262" style="visibility: inherit;" fill="rgb(0, 0, 0)" stroke="rgb(204, 204, 204)" stroke-width="1px"></line><line x1="51.5625" y1="223.10126549395648" x2="46.5625" y2="223.10126549395648" style="visibility: inherit;" fill="rgb(0, 0, 0)" stroke="rgb(204, 204, 204)" stroke-width="1px"></line><line x1="51.5625" y1="209.42418939258818" x2="46.5625" y2="209.42418939258818" style="visibility: inherit;" fill="rgb(0, 0, 0)" stroke="rgb(204, 204, 204)" stroke-width="1px"></line><line x1="51.5625" y1="198.2492045341659" x2="46.5625" y2="198.2492045341659" style="visibility: inherit;" fill="rgb(0, 0, 0)" stroke="rgb(204, 204, 204)" stroke-width="1px"></line><line x1="51.5625" y1="188.80088946228497" x2="46.5625" y2="188.80088946228497" style="visibility: inherit;" fill="rgb(0, 0, 0)" stroke="rgb(204, 204, 204)" stroke-width="1px"></line><line x1="51.5625" y1="180.61638666983976" x2="46.5625" y2="180.61638666983976" style="visibility: inherit;" fill="rgb(0, 0, 0)" stroke="rgb(204, 204, 204)" stroke-width="1px"></line><line x1="51.5625" y1="173.39714357437524" x2="46.5625" y2="173.39714357437524" style="visibility: inherit;" fill="rgb(0, 0, 0)" stroke="rgb(204, 204, 204)" stroke-width="1px"></line><line x1="51.5625" y1="166.9393105684714" x2="46.5625" y2="166.9393105684714" style="visibility: inherit;" fill="rgb(0, 0, 0)" stroke="rgb(204, 204, 204)" stroke-width="1px"></line><line x1="51.5625" y1="124.4544317443547" x2="46.5625" y2="124.4544317443547" style="visibility: inherit;" fill="rgb(0, 0, 0)" stroke="rgb(204, 204, 204)" stroke-width="1px"></line><line x1="51.5625" y1="99.60237078456404" x2="46.5625" y2="99.60237078456404" style="visibility: inherit;" fill="rgb(0, 0, 0)" stroke="rgb(204, 204, 204)" stroke-width="1px"></line><line x1="51.5625" y1="81.96955292023793" x2="46.5625" y2="81.96955292023793" style="visibility: inherit;" fill="rgb(0, 0, 0)" stroke="rgb(204, 204, 204)" stroke-width="1px"></line><line x1="51.5625" y1="68.2924768188696" x2="46.5625" y2="68.2924768188696" style="visibility: inherit;" fill="rgb(0, 0, 0)" stroke="rgb(204, 204, 204)" stroke-width="1px"></line><line x1="51.5625" y1="57.117491960447325" x2="46.5625" y2="57.117491960447325" style="visibility: inherit;" fill="rgb(0, 0, 0)" stroke="rgb(204, 204, 204)" stroke-width="1px"></line><line x1="51.5625" y1="47.669176888566405" x2="46.5625" y2="47.669176888566405" style="visibility: inherit;" fill="rgb(0, 0, 0)" stroke="rgb(204, 204, 204)" stroke-width="1px"></line><line x1="51.5625" y1="39.4846740961212" x2="46.5625" y2="39.4846740961212" style="visibility: inherit;" fill="rgb(0, 0, 0)" stroke="rgb(204, 204, 204)" stroke-width="1px"></line><line x1="51.5625" y1="32.26543100065668" x2="46.5625" y2="32.26543100065668" style="visibility: inherit;" fill="rgb(0, 0, 0)" stroke="rgb(204, 204, 204)" stroke-width="1px"></line><line x1="51.5625" y1="25.807597994752843" x2="46.5625" y2="25.807597994752843" style="visibility: inherit;" fill="rgb(0, 0, 0)" stroke="rgb(204, 204, 204)" stroke-width="1px"></line></g><g transform="translate(41.5625, 0)"><text x="0" y="364.23297806767505" dx="0em" dy="0.3em" style="text-anchor: end; visibility: inherit; font-family: Roboto, sans-serif; font-size: 12px; font-weight: 200;" fill="rgb(33, 33, 33)" stroke="none" stroke-width="1px">4e-3</text><text x="0" y="350.5559019663067" dx="0em" dy="0.3em" style="text-anchor: end; visibility: hidden; font-family: Roboto, sans-serif; font-size: 12px; font-weight: 200;" fill="rgb(33, 33, 33)" stroke="none" stroke-width="1px">5e-3</text><text x="0" y="339.38091710788444" dx="0em" dy="0.3em" style="text-anchor: end; visibility: hidden; font-family: Roboto, sans-serif; font-size: 12px; font-weight: 200;" fill="rgb(33, 33, 33)" stroke="none" stroke-width="1px">6e-3</text><text x="0" y="329.9326020360035" dx="0em" dy="0.3em" style="text-anchor: end; visibility: hidden; font-family: Roboto, sans-serif; font-size: 12px; font-weight: 200;" fill="rgb(33, 33, 33)" stroke="none" stroke-width="1px">7e-3</text><text x="0" y="321.74809924355833" dx="0em" dy="0.3em" style="text-anchor: end; visibility: inherit; font-family: Roboto, sans-serif; font-size: 12px; font-weight: 200;" fill="rgb(33, 33, 33)" stroke="none" stroke-width="1px">8e-3</text><text x="0" y="314.52885614809384" dx="0em" dy="0.3em" style="text-anchor: end; visibility: hidden; font-family: Roboto, sans-serif; font-size: 12px; font-weight: 200;" fill="rgb(33, 33, 33)" stroke="none" stroke-width="1px">9e-3</text><text x="0" y="308.0710231421899" dx="0em" dy="0.3em" style="text-anchor: end; visibility: hidden; font-family: Roboto, sans-serif; font-size: 12px; font-weight: 200;" fill="rgb(33, 33, 33)" stroke="none" stroke-width="1px">0.01</text><text x="0" y="265.5861443180732" dx="0em" dy="0.3em" style="text-anchor: end; visibility: hidden; font-family: Roboto, sans-serif; font-size: 12px; font-weight: 200;" fill="rgb(33, 33, 33)" stroke="none" stroke-width="1px">0.02</text><text x="0" y="240.73408335828262" dx="0em" dy="0.3em" style="text-anchor: end; visibility: inherit; font-family: Roboto, sans-serif; font-size: 12px; font-weight: 200;" fill="rgb(33, 33, 33)" stroke="none" stroke-width="1px">0.03</text><text x="0" y="223.10126549395648" dx="0em" dy="0.3em" style="text-anchor: end; visibility: hidden; font-family: Roboto, sans-serif; font-size: 12px; font-weight: 200;" fill="rgb(33, 33, 33)" stroke="none" stroke-width="1px">0.04</text><text x="0" y="209.42418939258818" dx="0em" dy="0.3em" style="text-anchor: end; visibility: hidden; font-family: Roboto, sans-serif; font-size: 12px; font-weight: 200;" fill="rgb(33, 33, 33)" stroke="none" stroke-width="1px">0.05</text><text x="0" y="198.2492045341659" dx="0em" dy="0.3em" style="text-anchor: end; visibility: hidden; font-family: Roboto, sans-serif; font-size: 12px; font-weight: 200;" fill="rgb(33, 33, 33)" stroke="none" stroke-width="1px">0.06</text><text x="0" y="188.80088946228497" dx="0em" dy="0.3em" style="text-anchor: end; visibility: inherit; font-family: Roboto, sans-serif; font-size: 12px; font-weight: 200;" fill="rgb(33, 33, 33)" stroke="none" stroke-width="1px">0.07</text><text x="0" y="180.61638666983976" dx="0em" dy="0.3em" style="text-anchor: end; visibility: hidden; font-family: Roboto, sans-serif; font-size: 12px; font-weight: 200;" fill="rgb(33, 33, 33)" stroke="none" stroke-width="1px">0.08</text><text x="0" y="173.39714357437524" dx="0em" dy="0.3em" style="text-anchor: end; visibility: hidden; font-family: Roboto, sans-serif; font-size: 12px; font-weight: 200;" fill="rgb(33, 33, 33)" stroke="none" stroke-width="1px">0.09</text><text x="0" y="166.9393105684714" dx="0em" dy="0.3em" style="text-anchor: end; visibility: hidden; font-family: Roboto, sans-serif; font-size: 12px; font-weight: 200;" fill="rgb(33, 33, 33)" stroke="none" stroke-width="1px">0.1</text><text x="0" y="124.4544317443547" dx="0em" dy="0.3em" style="text-anchor: end; visibility: inherit; font-family: Roboto, sans-serif; font-size: 12px; font-weight: 200;" fill="rgb(33, 33, 33)" stroke="none" stroke-width="1px">0.2</text><text x="0" y="99.60237078456404" dx="0em" dy="0.3em" style="text-anchor: end; visibility: hidden; font-family: Roboto, sans-serif; font-size: 12px; font-weight: 200;" fill="rgb(33, 33, 33)" stroke="none" stroke-width="1px">0.3</text><text x="0" y="81.96955292023793" dx="0em" dy="0.3em" style="text-anchor: end; visibility: hidden; font-family: Roboto, sans-serif; font-size: 12px; font-weight: 200;" fill="rgb(33, 33, 33)" stroke="none" stroke-width="1px">0.4</text><text x="0" y="68.2924768188696" dx="0em" dy="0.3em" style="text-anchor: end; visibility: hidden; font-family: Roboto, sans-serif; font-size: 12px; font-weight: 200;" fill="rgb(33, 33, 33)" stroke="none" stroke-width="1px">0.5</text><text x="0" y="57.117491960447325" dx="0em" dy="0.3em" style="text-anchor: end; visibility: inherit; font-family: Roboto, sans-serif; font-size: 12px; font-weight: 200;" fill="rgb(33, 33, 33)" stroke="none" stroke-width="1px">0.6</text><text x="0" y="47.669176888566405" dx="0em" dy="0.3em" style="text-anchor: end; visibility: hidden; font-family: Roboto, sans-serif; font-size: 12px; font-weight: 200;" fill="rgb(33, 33, 33)" stroke="none" stroke-width="1px">0.7</text><text x="0" y="39.4846740961212" dx="0em" dy="0.3em" style="text-anchor: end; visibility: hidden; font-family: Roboto, sans-serif; font-size: 12px; font-weight: 200;" fill="rgb(33, 33, 33)" stroke="none" stroke-width="1px">0.8</text><text x="0" y="32.26543100065668" dx="0em" dy="0.3em" style="text-anchor: end; visibility: hidden; font-family: Roboto, sans-serif; font-size: 12px; font-weight: 200;" fill="rgb(33, 33, 33)" stroke="none" stroke-width="1px">0.9</text><text x="0" y="25.807597994752843" dx="0em" dy="0.3em" style="text-anchor: end; visibility: inherit; font-family: Roboto, sans-serif; font-size: 12px; font-weight: 200;" fill="rgb(33, 33, 33)" stroke="none" stroke-width="1px">1</text></g><line x1="51.5625" y1="0" x2="51.5625" y2="377" fill="rgb(0, 0, 0)" stroke="rgb(204, 204, 204)" stroke-width="1px"></line></g></g><g transform="translate(51, 0)" clip-path="url(#clip_0)"><clipPath id="clip_0"><rect width="1446" height="377"></rect></clipPath><g><g><g><line x1="0" y1="0" x2="0" y2="377" fill="rgb(0, 0, 0)" stroke="rgb(66, 66, 66)" stroke-width="1px" opacity="0.25"></line><line x1="144.64375" y1="0" x2="144.64375" y2="377" fill="rgb(0, 0, 0)" stroke="rgb(66, 66, 66)" stroke-width="1px" opacity="0.25"></line><line x1="289.2875" y1="0" x2="289.2875" y2="377" fill="rgb(0, 0, 0)" stroke="rgb(66, 66, 66)" stroke-width="1px" opacity="0.25"></line><line x1="433.93125" y1="0" x2="433.93125" y2="377" fill="rgb(0, 0, 0)" stroke="rgb(66, 66, 66)" stroke-width="1px" opacity="0.25"></line><line x1="578.575" y1="0" x2="578.575" y2="377" fill="rgb(0, 0, 0)" stroke="rgb(66, 66, 66)" stroke-width="1px" opacity="0.25"></line><line x1="723.21875" y1="0" x2="723.21875" y2="377" fill="rgb(0, 0, 0)" stroke="rgb(66, 66, 66)" stroke-width="1px" opacity="0.25"></line><line x1="867.8625" y1="0" x2="867.8625" y2="377" fill="rgb(0, 0, 0)" stroke="rgb(66, 66, 66)" stroke-width="1px" opacity="0.25"></line><line x1="1012.5062499999999" y1="0" x2="1012.5062499999999" y2="377" fill="rgb(0, 0, 0)" stroke="rgb(66, 66, 66)" stroke-width="1px" opacity="0.25"></line><line x1="1157.15" y1="0" x2="1157.15" y2="377" fill="rgb(0, 0, 0)" stroke="rgb(66, 66, 66)" stroke-width="1px" opacity="0.25"></line><line x1="1301.79375" y1="0" x2="1301.79375" y2="377" fill="rgb(0, 0, 0)" stroke="rgb(66, 66, 66)" stroke-width="1px" opacity="0.25"></line><line x1="1446.4375" y1="0" x2="1446.4375" y2="377" fill="rgb(0, 0, 0)" stroke="rgb(66, 66, 66)" stroke-width="1px" opacity="0.25"></line></g><g><line x1="0" y1="364.23297806767505" x2="1446.4375" y2="364.23297806767505" fill="rgb(0, 0, 0)" stroke="rgb(66, 66, 66)" stroke-width="1px" opacity="0.25"></line><line x1="0" y1="350.5559019663067" x2="1446.4375" y2="350.5559019663067" fill="rgb(0, 0, 0)" stroke="rgb(66, 66, 66)" stroke-width="1px" opacity="0.25"></line><line x1="0" y1="339.38091710788444" x2="1446.4375" y2="339.38091710788444" fill="rgb(0, 0, 0)" stroke="rgb(66, 66, 66)" stroke-width="1px" opacity="0.25"></line><line x1="0" y1="329.9326020360035" x2="1446.4375" y2="329.9326020360035" fill="rgb(0, 0, 0)" stroke="rgb(66, 66, 66)" stroke-width="1px" opacity="0.25"></line><line x1="0" y1="321.74809924355833" x2="1446.4375" y2="321.74809924355833" fill="rgb(0, 0, 0)" stroke="rgb(66, 66, 66)" stroke-width="1px" opacity="0.25"></line><line x1="0" y1="314.52885614809384" x2="1446.4375" y2="314.52885614809384" fill="rgb(0, 0, 0)" stroke="rgb(66, 66, 66)" stroke-width="1px" opacity="0.25"></line><line x1="0" y1="308.0710231421899" x2="1446.4375" y2="308.0710231421899" fill="rgb(0, 0, 0)" stroke="rgb(66, 66, 66)" stroke-width="1px" opacity="0.25"></line><line x1="0" y1="265.5861443180732" x2="1446.4375" y2="265.5861443180732" fill="rgb(0, 0, 0)" stroke="rgb(66, 66, 66)" stroke-width="1px" opacity="0.25"></line><line x1="0" y1="240.73408335828262" x2="1446.4375" y2="240.73408335828262" fill="rgb(0, 0, 0)" stroke="rgb(66, 66, 66)" stroke-width="1px" opacity="0.25"></line><line x1="0" y1="223.10126549395648" x2="1446.4375" y2="223.10126549395648" fill="rgb(0, 0, 0)" stroke="rgb(66, 66, 66)" stroke-width="1px" opacity="0.25"></line><line x1="0" y1="209.42418939258818" x2="1446.4375" y2="209.42418939258818" fill="rgb(0, 0, 0)" stroke="rgb(66, 66, 66)" stroke-width="1px" opacity="0.25"></line><line x1="0" y1="198.2492045341659" x2="1446.4375" y2="198.2492045341659" fill="rgb(0, 0, 0)" stroke="rgb(66, 66, 66)" stroke-width="1px" opacity="0.25"></line><line x1="0" y1="188.80088946228497" x2="1446.4375" y2="188.80088946228497" fill="rgb(0, 0, 0)" stroke="rgb(66, 66, 66)" stroke-width="1px" opacity="0.25"></line><line x1="0" y1="180.61638666983976" x2="1446.4375" y2="180.61638666983976" fill="rgb(0, 0, 0)" stroke="rgb(66, 66, 66)" stroke-width="1px" opacity="0.25"></line><line x1="0" y1="173.39714357437524" x2="1446.4375" y2="173.39714357437524" fill="rgb(0, 0, 0)" stroke="rgb(66, 66, 66)" stroke-width="1px" opacity="0.25"></line><line x1="0" y1="166.9393105684714" x2="1446.4375" y2="166.9393105684714" fill="rgb(0, 0, 0)" stroke="rgb(66, 66, 66)" stroke-width="1px" opacity="0.25"></line><line x1="0" y1="124.4544317443547" x2="1446.4375" y2="124.4544317443547" fill="rgb(0, 0, 0)" stroke="rgb(66, 66, 66)" stroke-width="1px" opacity="0.25"></line><line x1="0" y1="99.60237078456404" x2="1446.4375" y2="99.60237078456404" fill="rgb(0, 0, 0)" stroke="rgb(66, 66, 66)" stroke-width="1px" opacity="0.25"></line><line x1="0" y1="81.96955292023793" x2="1446.4375" y2="81.96955292023793" fill="rgb(0, 0, 0)" stroke="rgb(66, 66, 66)" stroke-width="1px" opacity="0.25"></line><line x1="0" y1="68.2924768188696" x2="1446.4375" y2="68.2924768188696" fill="rgb(0, 0, 0)" stroke="rgb(66, 66, 66)" stroke-width="1px" opacity="0.25"></line><line x1="0" y1="57.117491960447325" x2="1446.4375" y2="57.117491960447325" fill="rgb(0, 0, 0)" stroke="rgb(66, 66, 66)" stroke-width="1px" opacity="0.25"></line><line x1="0" y1="47.669176888566405" x2="1446.4375" y2="47.669176888566405" fill="rgb(0, 0, 0)" stroke="rgb(66, 66, 66)" stroke-width="1px" opacity="0.25"></line><line x1="0" y1="39.4846740961212" x2="1446.4375" y2="39.4846740961212" fill="rgb(0, 0, 0)" stroke="rgb(66, 66, 66)" stroke-width="1px" opacity="0.25"></line><line x1="0" y1="32.26543100065668" x2="1446.4375" y2="32.26543100065668" fill="rgb(0, 0, 0)" stroke="rgb(66, 66, 66)" stroke-width="1px" opacity="0.25"></line><line x1="0" y1="25.807597994752843" x2="1446.4375" y2="25.807597994752843" fill="rgb(0, 0, 0)" stroke="rgb(66, 66, 66)" stroke-width="1px" opacity="0.25"></line></g></g></g><g><g><line x1="144.64375" y1="0" x2="144.64375" y2="377" fill="rgb(0, 0, 0)" stroke="rgb(153, 153, 153)" stroke-width="1.5px"></line></g></g><g><g><g><g><g><path stroke="rgb(204, 51, 17)" stroke-width="2px" d="M144.64375,55.401034693805386L151.8759375,78.73148188161188L159.108125,91.93078553731301L166.3403125,102.58733291590451L173.5725,110.77735564298636L180.8046875,117.12632843290862L188.036875,122.63078452773172L195.26906250000002,126.07542144906495L202.50125000000003,129.4852282195569L209.73343749999998,134.67580631630463L216.965625,136.42398562062453L224.1978125,138.51579740976663L231.43,141.91586569002698L238.66218750000002,144.39384719055914L245.89437500000003,146.79066939753568L253.12656249999998,148.8272312784273L260.35875,151.55055897321049L267.5909375,151.95242120167143L274.823125,154.12141256211203L282.0553125,156.13319969430307L289.2875,158.89748467244004L296.5196875,159.85097368473166L303.751875,160.76407752516184L310.9840625,162.47239185873448L318.21625,164.24139827674708L325.4484375,164.75973485118388L332.680625,165.96639499528368L339.9128125,168.41571065664954L347.145,169.2883713899396L354.3771875,170.30298350915356L361.609375,172.43763380514795L368.8415625,174.19226856709147L376.07375,173.4380111790655L383.3059375,176.3549467828385L390.53812500000004,177.71352293122783L397.77031250000005,179.6736382798623L405.00250000000005,180.4022321512264L412.23468749999995,180.6777147562131L419.46687499999996,183.55098820509315L426.69906249999997,181.43396356693228L433.93125,184.21360360108415L441.1634375,184.08371487793318L448.395625,185.22945039304523L455.6278125,186.5487021497376L462.86,186.9891638183552L470.0921875,188.5736627236598L477.32437500000003,188.45164255892408L484.55656250000004,190.59565220397135L491.78875000000005,192.31458527147555L499.02093749999995,192.4073981602586L506.25312499999995,192.63065752426758L513.4853125,194.3126357109375L520.7175,194.35096256750376L527.9496875,196.02234390672868L535.181875,197.8216737918626L542.4140625,200.26375961962682L549.64625,196.2591930319568L556.8784375,199.84292880015232L564.110625,200.4117451523134L571.3428125,202.65332136785133L578.575,201.84640532308498L585.8071875,202.5875391661867L593.039375,204.20961481899255L600.2715625,204.39006368798644L607.50375,204.20961481899255L614.7359375,204.1421418757323L621.968125,208.21043356954368L629.2003125,210.23862859541643L636.4325,207.70776765037124L643.6646875,210.2635124256094L650.896875,212.25920765675613L658.1290625,209.35071381630164L665.36125,209.91649671162085L672.5934375,212.904489260085L679.825625,212.56807666920818L687.0578125,212.07971209400029L694.29,213.13848861193372L701.5221875,213.3472839433661L708.754375,216.56687362303745L715.9865625,215.15092122072073L723.21875,238.09489721089852L730.4509375,255.3375751801097L737.683125,262.07260984428694L744.9153125,265.46375578824745L752.1475,270.5637026961761L759.3796875,267.8970286310179L766.611875,270.9638210348164L773.8440625000001,271.36676924706404L781.0762500000001,272.93573428667617L788.3084375000001,279.8018102953481L795.5406250000001,281.9251241933355L802.7728125000001,282.00530187135377L810.0050000000001,283.30066612759555L817.2371874999999,281.5262753579513L824.4693749999999,285.3815028005469L831.7015624999999,287.62307901608483L838.9337499999999,286.0624498652871L846.1659374999999,289.22448527180154L853.3981249999999,289.3145415923739L860.6303125,292.7491844333813L867.8625,294.1003972194904L875.0946875,289.8587616935739L882.326875,292.940400640833L889.5590625,291.98994873787007L896.79125,293.03608998216583L904.0234375,296.8959140706382L911.255625,297.51215102129004L918.4878125,295.4823680895703L925.72,301.67454565007796L932.9521875,300.9062567421133L940.184375,293.03608998216583L947.4165625,297.3061516949116L954.6487500000001,298.86844919454757L961.8809375000001,303.35384855783815L969.1131250000001,299.7181633396989L976.3453125000001,301.0155639940325L983.5775000000001,305.43183699480585L990.8096875000001,306.02186071667563L998.0418749999999,303.35384855783815L1005.2740624999999,303.35384855783815L1012.5062499999999,303.2406323108644L1019.7384374999999,312.9159847721059L1026.970625,314.3929989934294L1034.2028125,312.65086138053977L1041.435,317.457868872869L1048.6671875,314.80181643945076L1055.899375,315.6281370123164L1063.1315625,313.7171042114542L1070.36375,312.38727183642345L1077.5959375,315.07602070439094L1084.828125,313.7171042114542L1092.0603125,312.38727183642345L1099.2925,316.88909950594086L1106.5246875,317.1728244507545L1113.756875,317.457868872869L1120.9890625,316.3255595774579L1128.22125,315.90607145599733L1135.4534375,318.4663112521895L1142.685625,318.3214750091017L1149.9178125,315.35145718711965L1157.15,322.2095709289885L1164.3821875,317.03100922708165L1171.614375,319.04997719155034L1178.8465625,319.04997719155034L1186.07875,314.52883341626045L1193.3109375,321.44231592061993L1200.543125,322.05516606651014L1207.7753125,322.05516606651014L1215.0075,316.46616903564455L1222.2396875,315.7671538007563L1229.471875,322.67466950459254L1236.7040625,323.1428571428571L1243.93625,317.1728244507545L1251.1684375,318.90375679514483L1258.400625,318.4663112521895L1265.6328125,322.2095709289885L1272.865,321.59518270409546L1280.0971875,320.08518288570485L1287.329375,317.8881509419565L1294.5615625,318.4663112521895" style="fill: none;" fill="none"></path></g><g><path stroke="rgb(0, 119, 187)" stroke-width="2px" d="M144.64375,53.85714285714283L151.8759375,73.56593892054023L159.108125,86.18079977373809L166.3403125,95.7962111737449L173.5725,102.54445254247432L180.8046875,108.92278597214862L188.036875,114.7841210873882L195.26906250000002,118.12422729874253L202.50125000000003,122.58916586979103L209.73343749999998,124.84179569843411L216.965625,127.36650231003047L224.1978125,130.01312741025984L231.43,132.13664652694015L238.66218750000002,134.30040275057812L245.89437500000003,137.5519737875935L253.12656249999998,139.50284128140797L260.35875,141.3399777065445L267.5909375,142.91827690909565L274.823125,145.2827923757887L282.0553125,146.8789893928771L289.2875,148.4996942023404L296.5196875,149.13816301893016L303.751875,151.3505974400497L310.9840625,152.6571993485959L318.21625,154.36056316095946L325.4484375,154.66084202803137L332.680625,157.32659290658358L339.9128125,156.99218615953828L347.145,159.67649628853863L354.3771875,159.10208808963594L361.609375,161.33197568528703L368.8415625,162.15407977502974L376.07375,162.65499051343045L383.3059375,163.4604218511256L390.53812500000004,166.18396693234533L397.77031250000005,166.6701987046281L405.00250000000005,166.43875669374015L412.23468749999995,168.0027092995472L419.46687499999996,168.65479174520712L426.69906249999997,169.41586182485392L433.93125,171.3610161561071L441.1634375,172.26356671606422L448.395625,172.41082512867266L455.6278125,173.08466588185004L462.86,174.9279906473714L470.0921875,176.01284965730358L477.32437500000003,175.6726513081684L484.55656250000004,177.18967606812936L491.78875000000005,178.24192947860493L499.02093749999995,180.60105738321084L506.25312499999995,180.14320627563959L513.4853125,179.91555690740054L520.7175,181.8546532567605L527.9496875,181.24787733385892L535.181875,183.198360404194L542.4140625,182.48331265939098L549.64625,184.19733429444742L556.8784375,186.0778260373795L564.110625,184.29491799170285L571.3428125,186.7007690442185L578.575,186.396961415678L585.8071875,189.75390514565743L593.039375,190.74006376156396L600.2715625,189.75390514565743L607.50375,189.18738156854766L614.7359375,191.12085222961784L621.968125,192.6493270175879L629.2003125,193.55097606868242L636.4325,191.44906582799695L643.6646875,192.87347096778606L650.896875,193.98773624751982L658.1290625,193.26779032844186L665.36125,195.94353850817046L672.5934375,195.8256078559367L679.825625,197.72029637489618L687.0578125,196.5367379733626L694.29,198.90647725814907L701.5221875,200.26375961962682L708.754375,198.576989250466L715.9865625,201.32862202226374L723.21875,221.55793205948098L730.4509375,234.9666064507061L737.683125,240.36747175401737L744.9153125,245.35816058650755L752.1475,247.32830097394674L759.3796875,249.5523003427976L766.611875,250.98439127983897L773.8440625000001,253.34775651914146L781.0762500000001,254.15628938111016L788.3084375000001,255.18215024527623L795.5406250000001,257.07314272294184L802.7728125000001,258.31242747956384L810.0050000000001,257.1799105000534L817.2371874999999,257.3403318576537L824.4693749999999,262.0146806306963L831.7015624999999,261.55389158023337L838.9337499999999,260.64240895640194L846.1659374999999,266.4502501316966L853.3981249999999,259.5774530864982L860.6303125,265.8318330422233L867.8625,265.6474266921098L875.0946875,264.7945451243365L882.326875,269.18340967631906L889.5590625,264.43244715464135L896.79125,268.6011853414983L904.0234375,266.5125291304637L911.255625,268.21614937070115L918.4878125,273.14346482434706L925.72,272.1802941287888L932.9521875,272.65998755493484L940.184375,270.49736846567697L947.4165625,273.70060164713794L954.6487500000001,270.6967854678112L961.8809375000001,276.27278810837413L969.1131250000001,278.3506540677344L976.3453125000001,276.4188779710281L983.5775000000001,276.6385583447712L990.8096875000001,280.03421120506687L998.0418749999999,273.91094516154874L1005.2740624999999,276.4188779710281L1012.5062499999999,275.61955121575556L1019.7384374999999,283.30066612759555L1026.970625,284.3738119315859L1034.2028125,282.24598667926466L1041.435,287.27288015213924L1048.6671875,287.88717893865515L1055.899375,286.49204421097073L1063.1315625,289.8587616935739L1070.36375,284.6242480470566L1077.5959375,292.55827926863174L1084.828125,289.40499984499496L1092.0603125,289.6769077651261L1099.2925,285.7210306935121L1106.5246875,290.8688568349284L1113.756875,289.0445007753587L1120.9890625,288.5076968421127L1128.22125,288.5076968421127L1135.4534375,291.80167028942844L1142.685625,288.06379201800337L1149.9178125,286.0624498652871L1157.15,289.3145415923739L1164.3821875,289.1342928422561L1171.614375,292.17880732089725L1178.8465625,289.6769077651261L1186.07875,293.6142502923988L1193.3109375,291.2402803819867L1200.543125,293.8084781905322L1207.7753125,294.88640167175157L1215.0075,290.96136375134483L1222.2396875,291.33335000372466L1229.471875,296.9982925873814L1236.7040625,285.2124415582884L1243.93625,293.6142502923988L1251.1684375,286.6646770568485L1258.400625,287.88717893865515L1265.6328125,295.4823680895703L1272.865,289.4953219792049L1280.0971875,291.98994873787007L1287.329375,290.407583401044L1294.5615625,292.17880732089725" style="fill: none;" fill="none"></path></g></g></g></g></g></g><g transform="translate(51, 377)" clip-path="url(#clip_1)"><clipPath id="clip_1"><rect width="1446" height="23"></rect></clipPath><g><g><line x1="0" y1="0" x2="0" y2="5" style="visibility: inherit;" fill="rgb(0, 0, 0)" stroke="rgb(204, 204, 204)" stroke-width="1px"></line><line x1="144.64375" y1="0" x2="144.64375" y2="5" style="visibility: inherit;" fill="rgb(0, 0, 0)" stroke="rgb(204, 204, 204)" stroke-width="1px"></line><line x1="289.2875" y1="0" x2="289.2875" y2="5" style="visibility: inherit;" fill="rgb(0, 0, 0)" stroke="rgb(204, 204, 204)" stroke-width="1px"></line><line x1="433.93125" y1="0" x2="433.93125" y2="5" style="visibility: inherit;" fill="rgb(0, 0, 0)" stroke="rgb(204, 204, 204)" stroke-width="1px"></line><line x1="578.575" y1="0" x2="578.575" y2="5" style="visibility: inherit;" fill="rgb(0, 0, 0)" stroke="rgb(204, 204, 204)" stroke-width="1px"></line><line x1="723.21875" y1="0" x2="723.21875" y2="5" style="visibility: inherit;" fill="rgb(0, 0, 0)" stroke="rgb(204, 204, 204)" stroke-width="1px"></line><line x1="867.8625" y1="0" x2="867.8625" y2="5" style="visibility: inherit;" fill="rgb(0, 0, 0)" stroke="rgb(204, 204, 204)" stroke-width="1px"></line><line x1="1012.5062499999999" y1="0" x2="1012.5062499999999" y2="5" style="visibility: inherit;" fill="rgb(0, 0, 0)" stroke="rgb(204, 204, 204)" stroke-width="1px"></line><line x1="1157.15" y1="0" x2="1157.15" y2="5" style="visibility: inherit;" fill="rgb(0, 0, 0)" stroke="rgb(204, 204, 204)" stroke-width="1px"></line><line x1="1301.79375" y1="0" x2="1301.79375" y2="5" style="visibility: inherit;" fill="rgb(0, 0, 0)" stroke="rgb(204, 204, 204)" stroke-width="1px"></line><line x1="1446.4375" y1="0" x2="1446.4375" y2="5" style="visibility: inherit;" fill="rgb(0, 0, 0)" stroke="rgb(204, 204, 204)" stroke-width="1px"></line></g><g transform="translate(0, 8)"><text x="0" y="0" dx="0em" dy="0.95em" style="text-anchor: middle; visibility: hidden; font-family: Roboto, sans-serif; font-size: 12px; font-weight: 200;" fill="rgb(33, 33, 33)" stroke="none" stroke-width="1px">-20</text><text x="144.64375" y="0" dx="0em" dy="0.95em" style="text-anchor: middle; visibility: inherit; font-family: Roboto, sans-serif; font-size: 12px; font-weight: 200;" fill="rgb(33, 33, 33)" stroke="none" stroke-width="1px">0</text><text x="289.2875" y="0" dx="0em" dy="0.95em" style="text-anchor: middle; visibility: inherit; font-family: Roboto, sans-serif; font-size: 12px; font-weight: 200;" fill="rgb(33, 33, 33)" stroke="none" stroke-width="1px">20</text><text x="433.93125" y="0" dx="0em" dy="0.95em" style="text-anchor: middle; visibility: inherit; font-family: Roboto, sans-serif; font-size: 12px; font-weight: 200;" fill="rgb(33, 33, 33)" stroke="none" stroke-width="1px">40</text><text x="578.575" y="0" dx="0em" dy="0.95em" style="text-anchor: middle; visibility: inherit; font-family: Roboto, sans-serif; font-size: 12px; font-weight: 200;" fill="rgb(33, 33, 33)" stroke="none" stroke-width="1px">60</text><text x="723.21875" y="0" dx="0em" dy="0.95em" style="text-anchor: middle; visibility: inherit; font-family: Roboto, sans-serif; font-size: 12px; font-weight: 200;" fill="rgb(33, 33, 33)" stroke="none" stroke-width="1px">80</text><text x="867.8625" y="0" dx="0em" dy="0.95em" style="text-anchor: middle; visibility: inherit; font-family: Roboto, sans-serif; font-size: 12px; font-weight: 200;" fill="rgb(33, 33, 33)" stroke="none" stroke-width="1px">100</text><text x="1012.5062499999999" y="0" dx="0em" dy="0.95em" style="text-anchor: middle; visibility: inherit; font-family: Roboto, sans-serif; font-size: 12px; font-weight: 200;" fill="rgb(33, 33, 33)" stroke="none" stroke-width="1px">120</text><text x="1157.15" y="0" dx="0em" dy="0.95em" style="text-anchor: middle; visibility: inherit; font-family: Roboto, sans-serif; font-size: 12px; font-weight: 200;" fill="rgb(33, 33, 33)" stroke="none" stroke-width="1px">140</text><text x="1301.79375" y="0" dx="0em" dy="0.95em" style="text-anchor: middle; visibility: inherit; font-family: Roboto, sans-serif; font-size: 12px; font-weight: 200;" fill="rgb(33, 33, 33)" stroke="none" stroke-width="1px">160</text><text x="1446.4375" y="0" dx="0em" dy="0.95em" style="text-anchor: middle; visibility: hidden; font-family: Roboto, sans-serif; font-size: 12px; font-weight: 200;" fill="rgb(33, 33, 33)" stroke="none" stroke-width="1px">180</text></g><line x1="0" y1="0" x2="1446.4375" y2="0" fill="rgb(0, 0, 0)" stroke="rgb(204, 204, 204)" stroke-width="1px"></line></g></g></g></g></svg>